<svg width="582" height="412" viewBox="0 0 582 412" fill="none" xmlns="http://www.w3.org/2000/svg">
<g clip-path="url(#clip0_1_36)">
<path opacity="0.1" d="M193.491 411.768C221.834 411.768 244.81 408.08 244.81 403.531C244.81 398.982 221.834 395.293 193.491 395.293C165.148 395.293 142.171 398.982 142.171 403.531C142.171 408.08 165.148 411.768 193.491 411.768Z" fill="#2754A8"/>
<path opacity="0.1" d="M472.456 412C507.824 412 536.495 408.312 536.495 403.763C536.495 399.213 507.824 395.525 472.456 395.525C437.089 395.525 408.418 399.213 408.418 403.763C408.418 408.312 437.089 412 472.456 412Z" fill="#2754A8"/>
<path opacity="0.1" d="M7.28922 178.014H60.7417V250.824H11.2024C11.0708 251.572 10.9444 252.325 10.8074 253.077H60.7417V311.798C60.6522 311.771 60.5732 311.74 60.4889 311.708C59.0774 311.15 57.6765 310.561 56.2755 309.929L55.3802 309.524C53.9757 308.861 52.5712 308.159 51.1667 307.418C50.6769 307.16 50.1871 306.892 49.7026 306.618C41.9055 302.253 34.8224 296.722 28.6987 290.217C28.5196 290.043 28.3511 289.859 28.172 289.691C27.3188 288.764 26.4814 287.827 25.6703 286.869L24.7749 285.817C23.8164 284.643 22.8894 283.438 21.9888 282.216C21.8571 282.037 21.7307 281.858 21.5938 281.69C17.931 276.614 14.8897 271.119 12.5349 265.32C12.4612 265.147 12.398 264.957 12.3295 264.794C11.6062 262.934 10.9654 261.057 10.4071 259.162C10.1649 258.367 9.93314 257.583 9.733 256.757C9.65927 256.514 9.59606 256.278 9.53813 256.041C6.5466 244.371 6.19373 232.249 6.19373 220.212C6.19373 218.806 6.19373 217.396 6.19373 216.001C6.19373 211.132 6.25166 206.232 6.33593 201.336C6.33593 200.068 6.3886 198.805 6.41493 197.531C6.48866 194.299 6.594 191.067 6.73094 187.835C6.76254 186.935 6.80467 186.041 6.85207 185.146C6.85207 184.63 6.87841 184.114 6.93108 183.598C7.05748 181.724 7.16281 179.866 7.28922 178.014Z" fill="#2754A8"/>
<path opacity="0.1" d="M60.7418 96.9443H31.4216C36.1877 89.4888 41.3953 82.3247 47.0165 75.49C51.3721 70.1422 55.9701 64.9313 60.7418 59.9099V96.9443Z" fill="#2754A8"/>
<path opacity="0.1" d="M60.7418 99.1971V175.761H7.45776C7.45776 175.54 7.49463 175.313 7.51043 175.092C7.55783 174.487 7.60523 173.882 7.6579 173.282C7.71583 172.576 7.77904 171.866 7.8475 171.176C7.91597 170.487 7.98971 169.645 8.06871 168.881C8.14771 168.118 8.22145 167.344 8.31098 166.581C8.40052 165.818 8.47952 165.055 8.57432 164.297C8.66912 163.539 8.75339 162.77 8.85346 162.012C8.93246 161.381 9.01673 160.754 9.101 160.123C9.22213 159.233 9.34854 158.338 9.48547 157.454C9.48547 157.323 9.52234 157.186 9.54341 157.059C10.5047 150.586 11.8145 144.169 13.4672 137.837C15.1971 131.194 17.4061 124.685 20.077 118.362C22.9156 111.746 26.2392 105.349 30.0206 99.2234L60.7418 99.1971Z" fill="#2754A8"/>
<path opacity="0.1" d="M73.5031 178.008V250.824H187.671V178.008H73.5031ZM73.5031 253.072V315.603C74.1562 315.74 74.804 315.872 75.4466 315.982C76.3209 316.151 77.1899 316.303 78.08 316.435C78.2485 316.461 78.4223 316.487 78.6067 316.503C78.9543 316.561 79.3124 316.608 79.66 316.656C80.5396 316.777 81.4138 316.877 82.2934 316.956C82.7095 316.998 83.1308 317.035 83.5522 317.066L84.5686 317.145C85.1217 317.187 85.6694 317.219 86.2119 317.235C86.5489 317.235 86.886 317.266 87.2336 317.277C87.497 317.277 87.7603 317.277 88.0342 317.277C88.3081 317.277 88.6978 317.277 89.0296 317.277C89.4825 317.277 89.9355 317.277 90.3832 317.277H90.9888C91.4418 317.277 91.8947 317.277 92.3424 317.235H92.374C92.6847 317.235 93.0008 317.235 93.3168 317.193C93.4045 317.198 93.4924 317.198 93.5801 317.193C93.8434 317.193 94.1068 317.193 94.3596 317.156H94.5439L96.3083 317.019C96.8876 316.966 97.4722 316.898 98.0621 316.835L99.263 316.693C104.148 316.009 108.979 314.981 113.72 313.619C124.37 310.65 134.787 306.497 145.432 303.455C159.194 299.533 174.399 297.607 187.697 302.402V253.072H73.5031ZM187.671 96.9443V0.00526245C175.172 -0.130076 162.706 1.33098 150.577 4.35296C121.668 11.6114 95.7289 27.3547 73.5031 47.4615V96.939H79.2334V99.1865H73.5031V175.761H187.671V99.1918H102.76V96.9443H187.671ZM334.314 64.1997C327.162 63.947 320.052 61.6837 313.621 58.1887C301.323 51.5039 291.5 41.1821 280.524 32.4709C257.719 14.3274 229.437 3.3792 200.422 0.663208V96.9443H363.402L363.808 96.5179L334.314 64.1997ZM349.161 61.5679L364.903 78.8324V57.0412C359.631 57.6939 355.012 59.2466 349.182 61.5468L349.161 61.5679ZM364.903 331.131V253.072H331.359C331.27 252.74 331.18 252.404 331.075 252.067C331.175 252.404 331.259 252.74 331.354 253.072H200.443V309.524C201.686 310.445 202.913 311.413 204.13 312.398C205.441 313.45 206.737 314.561 208.038 315.65L209.349 316.735C209.976 317.261 210.608 317.787 211.245 318.282C212.509 319.307 213.786 320.318 215.074 321.314C215.711 321.84 216.364 322.314 217.012 322.809C227.297 330.667 238.146 337.759 249.471 344.026C252.01 345.43 254.571 346.8 257.156 348.137C258.878 349.016 260.611 349.89 262.349 350.737C264.961 352.011 267.594 353.239 270.249 354.422C294.722 365.401 320.6 372.935 347.144 376.808C353.039 377.678 358.957 378.362 364.898 378.861V331.125H365.425L364.903 331.131ZM200.443 99.1918V175.761H364.925V99.1918H200.443ZM200.443 178.008V250.824H364.925V178.008H200.443ZM377.691 56.9465V81.2536L397.784 59.2203C391.127 58.1466 384.429 57.3798 377.691 56.9202V56.9465ZM377.691 178.035V250.824H537.67V178.008L377.691 178.035ZM537.085 336.91L537.648 253.072H377.691V379.697C387.996 380.13 398.316 380.007 408.607 379.329H408.786C413.702 379.02 418.595 378.571 423.465 377.982H423.575C449.557 374.96 474.962 368.185 498.996 357.87M568.517 189.999C567.917 188.583 567.29 187.177 566.653 185.788C565.462 183.156 564.204 180.598 562.908 178.04H550.426V250.824H581.984C581.968 230.212 576.749 209.158 568.533 189.972L568.517 189.999ZM550.426 253.098V325.209C559.316 316.693 566.826 306.95 572.235 295.812C578.74 282.401 581.716 267.878 581.958 253.088L550.426 253.098ZM550.426 156.817V175.766H561.739C558.316 169.243 554.545 162.909 550.441 156.791L550.426 156.817ZM441.93 71.2318C441.098 70.916 440.266 70.5949 439.428 70.2843C430.596 67.0248 421.571 64.3141 412.405 62.1679L381.657 95.8916L381.067 96.5179L381.462 96.9495H490.895C475.654 86.4648 459.223 77.8231 441.946 71.2055L441.93 71.2318ZM494.103 99.2181H379.935L377.691 101.271V175.761H397.357H397.389H537.691V139.679C524.999 124.339 510.35 110.727 494.119 99.1918L494.103 99.2181Z" fill="#2754A8"/>
<path opacity="0.1" d="M60.7418 137.816V175.761H7.45776C7.45776 175.54 7.49463 175.313 7.51043 175.092C7.55783 174.487 7.60523 173.882 7.6579 173.282C7.71583 172.576 7.77904 171.866 7.8475 171.176C7.91597 170.487 7.98971 169.645 8.06871 168.881C8.14771 168.118 8.22145 167.344 8.31098 166.581C8.40052 165.818 8.47952 165.055 8.57432 164.297C8.66912 163.539 8.75339 162.77 8.85346 162.012C8.93246 161.381 9.01673 160.754 9.101 160.123C9.22213 159.233 9.34854 158.338 9.48547 157.454C9.48547 157.323 9.52234 157.186 9.54341 157.059C10.5047 150.586 11.8145 144.169 13.4672 137.837L60.7418 137.816Z" fill="#2754A8"/>
<path opacity="0.1" d="M7.28922 178.014H60.7417V250.824H11.2024C11.0708 251.572 10.9444 252.325 10.8074 253.077H60.7417V311.798C60.6522 311.771 60.5732 311.74 60.4889 311.708C59.0774 311.15 57.6765 310.561 56.2755 309.929L55.3802 309.524C53.9757 308.861 52.5712 308.159 51.1667 307.418C50.6769 307.16 50.1871 306.892 49.7026 306.618C41.9055 302.253 34.8224 296.722 28.6987 290.217C28.5196 290.043 28.3511 289.859 28.172 289.691C27.3188 288.764 26.4814 287.827 25.6703 286.869L24.7749 285.817C23.8164 284.643 22.8894 283.438 21.9888 282.216C21.8571 282.037 21.7307 281.858 21.5938 281.69C17.931 276.614 14.8897 271.119 12.5349 265.32C12.4612 265.147 12.398 264.957 12.3295 264.794C11.6062 262.934 10.9654 261.057 10.4071 259.162C10.1649 258.367 9.93314 257.583 9.733 256.757C9.65927 256.514 9.59606 256.278 9.53813 256.041C6.5466 244.371 6.19373 232.249 6.19373 220.212C6.19373 218.806 6.19373 217.396 6.19373 216.001C6.19373 211.132 6.25166 206.232 6.33593 201.336C6.33593 200.068 6.3886 198.805 6.41493 197.531C6.48866 194.299 6.594 191.067 6.73094 187.835C6.76254 186.935 6.80467 186.041 6.85207 185.146C6.85207 184.63 6.87841 184.114 6.93108 183.598C7.05748 181.724 7.16281 179.866 7.28922 178.014Z" fill="#2754A8"/>
<path opacity="0.1" d="M113.694 110.156V175.761H73.5031V110.156H79.2334V87.9436H102.755V110.156H113.694Z" fill="#2754A8"/>
<path opacity="0.1" d="M113.694 178.008H73.5084V250.819H113.694V178.008Z" fill="#2754A8"/>
<path opacity="0.1" d="M73.5031 253.077H113.694V313.608C108.953 314.97 104.122 315.995 99.2366 316.677L98.0358 316.824C97.4459 316.893 96.8613 316.951 96.282 317.009C95.7026 317.066 95.1022 317.109 94.5176 317.145H94.3333C94.0804 317.145 93.8066 317.177 93.559 317.182H93.2904C92.9744 317.182 92.6584 317.214 92.3424 317.224C91.8947 317.251 91.4471 317.256 90.9888 317.261C90.794 317.261 90.6096 317.261 90.4148 317.261C89.9618 317.261 89.5141 317.261 89.0612 317.261H88.0658C87.7972 317.261 87.5391 317.261 87.26 317.261L86.2435 317.224C85.7168 317.224 85.148 317.166 84.6002 317.13L83.589 317.056L82.3303 316.94C81.4454 316.861 80.5659 316.761 79.6969 316.64L78.6435 316.493L78.1168 316.419C77.2373 316.282 76.3683 316.135 75.4834 315.966C74.8356 315.856 74.1931 315.719 73.54 315.587L73.5031 253.077Z" fill="#2754A8"/>
<path opacity="0.1" d="M364.924 102.408H331.786V175.756H364.924V102.408Z" fill="#2754A8"/>
<path opacity="0.1" d="M364.93 178.008V250.825H200.443V219.417H288.056V237.945H331.786V178.008H364.93Z" fill="#2754A8"/>
<path opacity="0.1" d="M365.451 331.146H364.924V378.913C358.991 378.411 353.074 377.729 347.175 376.866C320.618 372.98 294.729 365.43 270.249 354.432C263.181 351.253 256.257 347.783 249.477 344.021C238.151 337.751 227.301 330.659 217.012 322.804C214.428 320.825 211.877 318.8 209.36 316.73C207.616 315.293 205.884 313.819 204.13 312.387C202.913 311.403 201.686 310.434 200.443 309.508V253.077H331.349C331.259 252.74 331.17 252.404 331.075 252.072C331.175 252.404 331.27 252.74 331.359 253.077H364.924V331.115C365.104 331.12 365.277 331.136 365.451 331.146Z" fill="#2754A8"/>
<path opacity="0.1" d="M451.352 96.9443H429.759V90.2385H439.439V70.2633C440.278 70.5686 441.114 70.8826 441.946 71.2055V90.2385H451.352V96.9443Z" fill="#2754A8"/>
<path opacity="0.1" d="M503.378 175.761H397.368C397.368 175.761 397.368 175.761 397.405 175.787L397.357 175.761H377.691V102.413H383.263V156.628H408.728V124.52H429.764V99.1971H451.358V124.541H472.393V156.649H503.378V175.761Z" fill="#2754A8"/>
<path opacity="0.1" d="M377.691 178.008V250.824H503.378V178.008H377.691ZM537.496 336.536L537.67 278.9H503.378V253.109H377.691V379.697C387.996 380.13 398.316 380.007 408.607 379.329H408.786C413.702 379.02 418.595 378.571 423.465 377.982H423.575C449.557 374.96 474.962 368.185 498.996 357.87" fill="#2754A8"/>
<path opacity="0.1" d="M552.659 253.077H581.979C581.721 267.863 578.75 282.385 572.251 295.796C566.842 306.939 559.327 316.682 550.447 325.193V278.874H552.659V253.077Z" fill="#2754A8"/>
<path opacity="0.1" d="M581.995 250.824H552.659V189.972H568.533C576.749 209.158 581.968 230.212 581.995 250.824Z" fill="#2754A8"/>
<path opacity="0.1" d="M364.93 122.799H347.175V145.795H364.93V122.799Z" fill="#2754A8"/>
<path opacity="0.1" d="M364.93 170.466H347.175V175.761H364.93V170.466Z" fill="#2754A8"/>
<path opacity="0.1" d="M364.93 178.008H347.175V193.457H364.93V178.008Z" fill="#2754A8"/>
<path opacity="0.1" d="M364.93 218.133H347.175V241.129H364.93V218.133Z" fill="#2754A8"/>
<path opacity="0.1" d="M364.93 265.799H347.175V288.796H364.93V265.799Z" fill="#2754A8"/>
<path opacity="0.1" d="M364.924 331.115C365.104 331.115 365.277 331.115 365.451 331.146H364.924V336.489H347.175V313.466H364.924V331.115Z" fill="#2754A8"/>
<path opacity="0.1" d="M364.924 361.122V378.887C358.991 378.385 353.074 377.703 347.175 376.839V361.122H364.924Z" fill="#2754A8"/>
<path opacity="0.1" d="M276.532 249.135H200.443V250.824H276.532V249.135Z" fill="#2754A8"/>
<path opacity="0.1" d="M276.532 253.072H200.443V259.546H276.532V253.072Z" fill="#2754A8"/>
<path opacity="0.1" d="M276.532 280.769H200.443V291.18H276.532V280.769Z" fill="#2754A8"/>
<path opacity="0.1" d="M276.527 312.403V322.814H217.012C214.428 320.842 211.875 318.817 209.354 316.74C207.611 315.303 205.884 313.829 204.125 312.403H276.527Z" fill="#2754A8"/>
<path opacity="0.1" d="M276.527 344.032V354.432H270.244C263.183 351.25 256.26 347.778 249.477 344.016L276.527 344.032Z" fill="#2754A8"/>
<path opacity="0.1" d="M423.591 185.067H408.612V200.036H423.591V185.067Z" fill="#2754A8"/>
<path opacity="0.1" d="M99.2735 115.319H84.2948V130.289H99.2735V115.319Z" fill="#2754A8"/>
<path opacity="0.1" d="M99.2735 150.09H84.2948V165.06H99.2735V150.09Z" fill="#2754A8"/>
<path opacity="0.1" d="M99.2735 184.862H84.2948V199.831H99.2735V184.862Z" fill="#2754A8"/>
<path opacity="0.1" d="M99.2735 219.627H84.2948V234.597H99.2735V219.627Z" fill="#2754A8"/>
<path opacity="0.1" d="M99.2735 254.398H84.2948V269.368H99.2735V254.398Z" fill="#2754A8"/>
<path opacity="0.1" d="M99.2735 289.17H84.2948V304.139H99.2735V289.17Z" fill="#2754A8"/>
<path opacity="0.1" d="M480.773 185.067H465.794V200.036H480.773V185.067Z" fill="#2754A8"/>
<path opacity="0.1" d="M423.591 221.991H408.612V236.96H423.591V221.991Z" fill="#2754A8"/>
<path opacity="0.1" d="M480.773 221.991H465.794V236.96H480.773V221.991Z" fill="#2754A8"/>
<path opacity="0.1" d="M423.591 258.909H408.612V273.879H423.591V258.909Z" fill="#2754A8"/>
<path opacity="0.1" d="M480.773 258.909H465.794V273.879H480.773V258.909Z" fill="#2754A8"/>
<path opacity="0.1" d="M423.591 295.833H408.612V310.803H423.591V295.833Z" fill="#2754A8"/>
<path opacity="0.1" d="M480.773 295.833H465.794V310.803H480.773V295.833Z" fill="#2754A8"/>
<path opacity="0.1" d="M423.591 332.757H408.612V347.727H423.591V332.757Z" fill="#2754A8"/>
<path opacity="0.1" d="M480.773 332.757H465.794V347.727H480.773V332.757Z" fill="#2754A8"/>
<path opacity="0.1" d="M408.612 379.329V369.676H423.586V377.955L408.612 379.329Z" fill="#2754A8"/>
<path opacity="0.1" d="M9.48019 157.049V165.613H60.7417V157.049H9.48019ZM14.589 165.076H10.4071V157.575H14.6206L14.589 165.076ZM19.6925 165.076H15.4791V157.575H19.6925V165.076ZM24.7855 165.076H20.572V157.575H24.7855V165.076ZM29.889 165.076H25.6808V157.575H29.8942L29.889 165.076ZM34.9872 165.076H30.7738V157.575H34.9872V165.076ZM40.0907 165.076H35.8773V157.575H40.0907V165.076ZM45.1942 165.076H40.9808V157.575H45.1942V165.076ZM50.2925 165.076H46.079V157.575H50.2925V165.076ZM55.3907 165.076H51.1773V157.575H55.3907V165.076ZM60.4889 165.076H56.2755V157.575H60.4889V165.076Z" fill="#2754A8"/>
<path opacity="0.1" d="M9.48019 181.967V190.53H60.7417V181.967H9.48019ZM14.589 189.988H10.4071V182.509H14.6206L14.589 189.988ZM19.6925 189.988H15.4791V182.509H19.6925V189.988ZM24.7855 189.988H20.572V182.509H24.7855V189.988ZM29.889 189.988H25.6808V182.509H29.8942L29.889 189.988ZM34.9872 189.988H30.7738V182.509H34.9872V189.988ZM40.0907 189.988H35.8773V182.509H40.0907V189.988ZM45.1942 189.988H40.9808V182.509H45.1942V189.988ZM50.2925 189.988H46.079V182.509H50.2925V189.988ZM55.3907 189.988H51.1773V182.509H55.3907V189.988ZM60.4889 189.988H56.2755V182.509H60.4889V189.988Z" fill="#2754A8"/>
<path opacity="0.1" d="M9.48019 206.895V215.474H60.7417V206.895H9.48019ZM14.589 214.916H10.4071V207.432H14.6206L14.589 214.916ZM19.6925 214.916H15.4791V207.432H19.6925V214.916ZM24.7855 214.916H20.572V207.432H24.7855V214.916ZM29.889 214.916H25.6808V207.432H29.8942L29.889 214.916ZM34.9872 214.916H30.7738V207.432H34.9872V214.916ZM40.0907 214.916H35.8773V207.432H40.0907V214.916ZM45.1942 214.916H40.9808V207.432H45.1942V214.916ZM50.2925 214.916H46.079V207.432H50.2925V214.916ZM55.3907 214.916H51.1773V207.432H55.3907V214.916ZM60.4889 214.916H56.2755V207.432H60.4889V214.916Z" fill="#2754A8"/>
<path opacity="0.1" d="M9.48019 231.823V240.376H60.7417V231.823H9.48019ZM14.589 239.845H10.4071V232.355H14.6206L14.589 239.845ZM19.6925 239.845H15.4791V232.355H19.6925V239.845ZM24.7855 239.845H20.572V232.355H24.7855V239.845ZM29.889 239.845H25.6808V232.355H29.8942L29.889 239.845ZM34.9872 239.845H30.7738V232.355H34.9872V239.845ZM40.0907 239.845H35.8773V232.355H40.0907V239.845ZM45.1942 239.845H40.9808V232.355H45.1942V239.845ZM50.2925 239.845H46.079V232.355H50.2925V239.845ZM55.3907 239.845H51.1773V232.355H55.3907V239.845ZM60.4889 239.845H56.2755V232.355H60.4889V239.845Z" fill="#2754A8"/>
<path opacity="0.1" d="M9.70142 256.746C9.90682 257.551 10.1386 258.357 10.3808 259.151V257.283H14.5942V264.768H12.3401C12.4085 264.941 12.477 265.131 12.5455 265.294H60.7418V256.746H9.70142ZM19.7083 264.768H15.4949V257.283H19.7083V264.768ZM24.8013 264.768H20.5878V257.283H24.8013V264.768ZM29.9048 264.768H25.6808V257.283H29.8942L29.9048 264.768ZM35.003 264.768H30.7896V257.283H35.003V264.768ZM40.1065 264.768H35.8931V257.283H40.1065V264.768ZM45.21 264.768H40.9966V257.283H45.21V264.768ZM50.3083 264.768H46.0948V257.283H50.3083V264.768ZM55.4065 264.768H51.1931V257.283H55.4065V264.768ZM60.5047 264.768H56.2913V257.283H60.5047V264.768Z" fill="#2754A8"/>
<path opacity="0.1" d="M21.6043 281.674C21.736 281.843 21.8624 282.032 21.9993 282.201H24.7854V285.796C25.0856 286.153 25.3806 286.511 25.6861 286.848V282.18H29.8995V289.691H28.193C28.3616 289.864 28.5249 290.049 28.7197 290.217H60.7575V281.674H21.6043ZM34.9872 289.691H30.7738V282.211H34.9872V289.691ZM40.0907 289.691H35.8773V282.211H40.0907V289.691ZM45.1942 289.691H40.9808V282.211H45.1942V289.691ZM50.2924 289.691H46.079V282.211H50.2924V289.691ZM55.3907 289.691H51.1773V282.211H55.3907V289.691ZM60.4889 289.691H56.2755V282.211H60.4889V289.691Z" fill="#2754A8"/>
<path opacity="0.1" d="M49.7236 306.597C50.2029 306.871 50.6927 307.124 51.1878 307.397V307.134H55.4012V309.503L56.2966 309.919V307.134H60.51V311.687C60.5908 311.727 60.6755 311.759 60.7628 311.782V306.597H49.7236Z" fill="#2754A8"/>
<path opacity="0.1" d="M331.075 252.067C331.175 252.404 331.259 252.74 331.354 253.072C331.27 252.74 331.18 252.404 331.075 252.067ZM79.2545 96.9285V99.176H102.781V96.9285H79.2545ZM331.075 252.067C331.175 252.404 331.259 252.74 331.354 253.072C331.27 252.74 331.18 252.404 331.075 252.067ZM331.075 252.067C331.175 252.404 331.259 252.74 331.354 253.072C331.27 252.74 331.18 252.404 331.075 252.067Z" fill="#2754A8"/>
<path d="M243.114 199.842C243.114 199.842 241.039 199.552 241.039 196.531C241.039 193.51 239.554 187.867 239.554 187.867C239.554 187.841 238.269 178.04 236.494 176.482C234.719 174.924 232.439 165.776 232.439 165.776C232.439 165.776 232.049 160.812 231.254 159.744C230.458 158.675 229.384 156.059 227.799 152.327C226.213 148.596 219.604 146.011 219.604 146.011C219.604 146.011 207.653 139.084 204.267 136.826C203.959 136.641 203.671 136.424 203.408 136.179C202.818 135.405 200.248 135.389 200.248 135.389C199.98 133.694 199.721 131.747 199.637 129.984C199.637 129.794 199.637 129.605 199.611 129.415C203.387 127.184 206.231 123.667 207.622 119.509C207.685 119.309 207.738 119.099 207.795 118.899C208.022 118.824 208.23 118.703 208.407 118.544C208.584 118.384 208.725 118.19 208.822 117.972C209.128 117.293 209.133 116.498 209.512 115.867C209.955 115.119 210.798 114.719 211.461 114.156C213.136 112.735 213.568 110.34 213.489 108.161C213.436 106.398 213.152 104.619 213.262 102.866L213.294 102.424C213.326 102.16 213.362 101.897 213.41 101.645C213.668 100.339 214.231 99.1076 214.547 97.8128C214.863 96.5179 214.895 95.0599 214.158 93.944C213.078 92.3071 210.829 91.9807 208.854 91.8123C206.616 91.6228 204.614 91.8702 203.182 90.0122C202.511 89.0411 201.757 88.1305 200.928 87.2909C200.633 87.0172 197.767 85.2697 197.767 85.1539C194.971 83.8595 191.801 83.6166 188.84 84.4696C187.355 84.9013 185.954 85.6066 184.448 85.9592C181.198 86.7277 177.459 85.8961 174.699 87.7541C173.161 88.8068 172.239 90.4806 171.376 92.1123C170.673 93.4563 169.961 94.7985 169.237 96.139C168.073 98.3444 166.888 100.587 166.399 103.029C166.296 103.56 166.232 104.099 166.209 104.64V104.666C166.209 104.861 166.209 105.055 166.209 105.25V105.498C166.209 105.682 166.209 105.861 166.241 106.024C166.272 106.187 166.267 106.24 166.283 106.35C166.298 106.461 166.325 106.708 166.356 106.877C166.388 107.045 166.451 107.34 166.514 107.571C166.541 107.671 166.578 107.766 166.609 107.861C166.662 108.04 166.725 108.214 166.794 108.387C166.83 108.477 166.867 108.571 166.909 108.661C166.988 108.845 167.083 109.024 167.178 109.187C167.22 109.261 167.252 109.329 167.294 109.398C167.441 109.643 167.603 109.878 167.778 110.103C168.906 111.509 170.565 112.403 171.792 113.719C171.792 113.772 171.792 113.825 171.792 113.872C171.792 114.019 171.792 114.161 171.792 114.309C171.857 117.243 172.638 120.118 174.069 122.682C175.499 125.246 177.534 127.422 179.997 129.02C179.997 129.22 180.024 129.426 180.034 129.626C180.137 131.188 180.118 132.756 179.976 134.316C179.762 134.063 179.493 133.862 179.191 133.727C178.888 133.592 178.559 133.527 178.228 133.537C178.001 133.526 177.775 133.545 177.554 133.594L177.506 133.558V133.605C176.348 133.889 174.92 135.095 173.556 138.521C173.556 138.521 169.406 143.195 166.246 143C163.086 142.806 155.086 147.864 155.086 147.864C155.086 147.864 147.28 152.928 145.605 158.086C144.669 161.011 143.547 163.873 142.245 166.655L132.596 186.525L130.816 202.289C130.816 202.289 131.801 209.3 131.606 210.369C131.411 211.437 135.656 221.075 135.656 221.075C135.656 221.075 149.682 245.703 155.412 246.966L155.823 246.677C156.068 246.805 156.328 246.902 156.597 246.966L157.777 246.135C157.848 247.062 157.818 247.993 157.687 248.914C156.897 251.346 157.982 267.215 159.362 270.326C160.742 273.437 160.252 314.224 160.252 314.224L160.057 317.824C160.057 317.824 160.057 317.94 160.105 318.14L160.057 318.993L160.2 319.067C160.347 320.209 160.299 321.367 160.057 322.493C159.562 324.072 159.362 328.536 159.362 328.536C159.362 328.536 155.417 353.738 157.287 358.801C159.157 363.865 160.747 369.413 160.747 369.413C160.747 369.413 162.722 375.729 160.842 376.808C158.962 377.887 153.616 379.698 154.717 382.329C155.718 384.761 159.515 391.277 160.078 392.23L160.031 392.73L159.257 401.115C159.382 402.222 159.683 403.302 160.147 404.315C160.995 406.142 162.643 408.037 165.777 407.831C166.304 407.794 166.915 407.731 167.505 407.652C173.24 406.884 180.303 404.326 180.303 404.326C179.936 404.093 179.6 403.815 179.302 403.499C179.02 403.226 178.797 402.899 178.646 402.537C178.494 402.175 178.419 401.786 178.423 401.394C178.507 399.868 175.647 392.593 174.936 390.804C174.825 390.546 174.767 390.398 174.767 390.398C174.767 390.398 181.288 383.587 180.203 377.55C180.203 377.55 172.987 373.339 175.363 371.028C177.738 368.718 181.983 362.08 181.983 362.08C181.983 362.08 182.178 337.263 181.983 333.557C181.78 330.985 181.902 328.398 182.346 325.857C182.425 325.472 182.52 325.099 182.62 324.73C185.905 325.22 189.221 325.472 192.543 325.483C193.754 325.483 194.987 325.483 196.23 325.409C196.23 325.76 196.245 326.139 196.277 326.546C196.551 332.694 197.062 343.474 197.478 347.479C198.068 353.222 201.328 368.697 201.328 368.697C201.328 368.697 195.108 372.686 202.413 382.519C202.413 382.519 202.413 386.082 201.928 386.598C201.411 388.284 200.994 390 200.68 391.735C200.375 393.588 200.248 395.462 200.743 396.436C201.928 398.762 209.038 398.573 209.038 398.573L209.212 398.541C210.555 398.402 211.911 398.532 213.203 398.921C214.495 399.31 215.697 399.952 216.738 400.81C219.44 402.978 229.695 402.026 235.246 401.336C237.421 401.062 238.875 400.81 238.875 400.81C238.945 400.564 238.97 400.307 238.948 400.052C238.89 398.688 237.821 395.699 230.574 393.03C230.574 393.03 223.759 388.451 223.854 384.461H223.712H222.922C223.496 384.429 223.864 384.461 223.864 384.461C223.864 384.461 221.194 374.723 222.284 373.934C223.375 373.144 220.109 362.354 220.109 362.354C220.109 362.354 218.239 344.247 218.139 342.979C218.144 341.89 218.309 340.808 218.629 339.768L218.139 329.841C218.139 329.841 218.045 326.541 218.139 325.467C218.123 324.535 218.048 323.605 217.913 322.683C217.866 322.314 217.818 321.93 217.765 321.551C220.32 320.904 221.979 320.303 221.979 320.303L221.684 285.748C223.854 281.537 224.254 272.3 224.244 265.747C224.244 261.536 224.054 258.42 224.054 258.42L227.019 253.583C227.019 253.583 227.704 247.793 226.619 246.524C226.14 245.95 226.356 245.356 226.751 244.866C226.956 244.704 227.172 244.556 227.398 244.424C227.398 244.424 227.367 244.377 227.33 244.308C227.537 244.135 227.757 243.979 227.988 243.84C227.988 243.84 226.935 242.208 227.878 241.519C228.762 242.119 229.553 242.571 230.153 242.94C230.111 243.324 230.069 243.545 230.069 243.545L230.321 243.019C230.901 243.345 231.254 243.545 231.254 243.545C231.254 243.545 235.899 234.297 235.799 232.934C235.699 231.57 238.959 225.828 238.959 225.828C238.959 225.828 239.354 222.812 241.134 221.549C242.914 220.285 242.514 211.132 242.514 211.132C242.514 211.132 243.009 206.363 244.194 204.416C245.379 202.468 243.114 199.842 243.114 199.842ZM154.232 195.783L154.322 197.989C153.795 197.141 153.416 196.531 153.416 196.531L154.232 195.783Z" fill="url(#paint0_linear_1_36)"/>
<path d="M231.506 239.55L230.369 244.392C230.369 244.392 221.257 239.745 219.614 233.839C217.971 227.933 222.363 225.691 222.363 225.691L230.853 229.286L231.506 239.55Z" fill="white"/>
<path opacity="0.1" d="M231.506 239.55L230.369 244.392C230.369 244.392 221.257 239.745 219.614 233.839C217.971 227.933 222.363 225.691 222.363 225.691L230.853 229.286L231.506 239.55Z" fill="black"/>
<path d="M180.371 404.357C180.371 404.357 171.944 407.452 166.151 407.842C163.075 408.047 161.458 406.163 160.626 404.347C160.172 403.337 159.878 402.263 159.757 401.162L160.51 392.82L160.911 388.377L173.219 385.182L174.962 390.509L175.126 390.914C175.826 392.693 178.633 399.931 178.549 401.441C178.546 401.828 178.62 402.212 178.769 402.569C178.917 402.926 179.136 403.25 179.413 403.52C179.695 403.839 180.017 404.12 180.371 404.357Z" fill="white"/>
<path d="M237.932 400.115C237.953 400.368 237.928 400.623 237.858 400.868C237.858 400.868 219.835 403.873 216.149 400.868C215.109 399.99 213.897 399.338 212.591 398.956C211.285 398.573 209.914 398.468 208.564 398.646C208.564 398.646 201.591 398.836 200.427 396.541C199.943 395.578 200.069 393.709 200.369 391.867C200.676 390.141 201.084 388.434 201.591 386.756L201.87 386.535L203.529 385.203L222.953 384.629H223.101C223.006 388.598 229.695 393.151 229.695 393.151C236.8 395.783 237.848 398.757 237.932 400.115Z" fill="white"/>
<path opacity="0.1" d="M237.932 400.115C237.95 400.368 237.924 400.623 237.853 400.868C237.853 400.868 219.835 403.873 216.149 400.868C215.11 399.99 213.899 399.339 212.594 398.957C211.289 398.574 209.918 398.469 208.57 398.646C208.57 398.646 201.591 398.836 200.432 396.541C199.948 395.572 200.069 393.709 200.369 391.867C203.055 392.135 207.295 392.804 208.959 394.399C211.477 396.825 215.743 399.246 218.361 399.436C220.409 399.567 232.665 399.957 237.932 400.115Z" fill="black"/>
<path opacity="0.1" d="M180.371 404.357C180.371 404.357 171.944 407.452 166.151 407.842C163.075 408.047 161.458 406.163 160.631 404.342C162.775 405.063 165.751 405.821 167.315 405.126C169.169 404.305 175.742 403.773 179.429 403.547C179.709 403.854 180.026 404.126 180.371 404.357Z" fill="black"/>
<path d="M192.875 154.943C185.923 152.243 176.98 143.321 179.213 139.153C179.709 138.101 180.003 136.965 180.082 135.805C180.225 134.23 180.246 132.646 180.145 131.068C179.988 128.483 179.677 125.91 179.213 123.362C179.213 123.362 200.917 123.852 199.653 127.047C199.284 127.983 199.226 129.61 199.326 131.431C199.427 133.252 199.69 135.31 199.964 137.053C200.343 139.442 200.722 141.263 200.722 141.263C200.722 141.263 199.395 143.121 198.615 143.221C197.836 143.322 202.85 158.791 192.875 154.943Z" fill="#CF6F80"/>
<path opacity="0.1" d="M175.11 390.914L174.947 391.093C168.458 383.25 160.61 393.025 160.61 393.025L160.495 392.82L160.895 388.377L173.203 385.182L174.947 390.509L175.11 390.914Z" fill="black"/>
<path opacity="0.1" d="M223.106 385.182C223.106 385.182 218.366 385.082 215.838 387.314C213.31 389.546 201.091 387.798 201.618 387.314C201.774 387.074 201.868 386.799 201.891 386.514L203.55 385.182L222.974 384.608C223.048 384.961 223.106 385.182 223.106 385.182Z" fill="black"/>
<path d="M183.184 323.593C182.831 324.465 182.563 325.37 182.383 326.293C181.944 328.823 181.822 331.397 182.02 333.957C182.215 337.642 182.02 362.333 182.02 362.333C182.02 362.333 177.854 368.918 175.531 371.239C173.209 373.56 180.271 377.729 180.271 377.729C181.325 383.729 174.941 390.509 174.941 390.509C168.453 382.666 160.605 392.446 160.605 392.446C160.605 392.446 156.339 385.077 155.275 382.445C154.211 379.813 159.441 377.992 161.279 376.924C163.117 375.855 161.19 369.555 161.19 369.555C161.19 369.555 159.636 364.033 157.793 358.996C155.949 353.959 159.826 328.883 159.826 328.883C159.826 328.883 160.026 324.43 160.505 322.877C160.747 321.757 160.795 320.603 160.647 319.467C160.616 319.082 160.579 318.761 160.552 318.545C160.526 318.33 160.505 318.23 160.505 318.23L160.579 318.103L163.212 313.198C163.212 313.198 184.448 320.504 183.184 323.593Z" fill="#2754A8"/>
<path d="M223.106 384.603C223.106 384.603 218.366 384.503 215.838 386.709C213.31 388.914 201.091 387.193 201.618 386.709C202.144 386.224 202.102 382.64 202.102 382.64C194.934 372.86 201.049 368.891 201.049 368.891C201.049 368.891 197.847 353.496 197.267 347.785C196.862 343.795 196.361 333.073 196.093 326.951C195.977 324.32 195.908 322.509 195.908 322.509L201.765 321.33L202.518 321.177L216.644 318.345C216.644 318.345 217.033 320.977 217.297 323.13C217.428 324.049 217.502 324.976 217.518 325.904C217.423 326.957 217.518 330.252 217.518 330.252L217.997 340.131C217.684 341.168 217.523 342.244 217.518 343.326C217.613 344.584 219.451 362.596 219.451 362.596C219.451 362.596 222.648 373.344 221.558 374.118C220.467 374.892 223.106 384.603 223.106 384.603Z" fill="#2754A8"/>
<path opacity="0.1" d="M199.653 127.047C199.284 127.983 199.226 129.61 199.326 131.431C196.419 133.181 193.077 134.075 189.684 134.012C186.291 133.949 182.985 132.93 180.145 131.073C179.989 128.487 179.677 125.912 179.213 123.362C179.213 123.362 200.917 123.841 199.653 127.047Z" fill="black"/>
<path d="M208.043 115.414C208.047 117.311 207.748 119.196 207.158 120.999C205.839 125.038 203.133 128.481 199.519 130.719C195.905 132.957 191.616 133.846 187.41 133.23C183.203 132.613 179.35 130.53 176.532 127.349C173.713 124.168 172.111 120.093 172.008 115.846C172.008 115.698 172.008 115.561 172.008 115.414C171.967 113.023 172.403 110.648 173.29 108.427C174.177 106.206 175.498 104.184 177.175 102.479C178.853 100.774 180.853 99.4195 183.06 98.495C185.266 97.5705 187.635 97.0943 190.028 97.0943C192.421 97.0943 194.789 97.5705 196.996 98.495C199.203 99.4195 201.203 100.774 202.881 102.479C204.558 104.184 205.879 106.206 206.766 108.427C207.653 110.648 208.089 113.023 208.048 115.414H208.043Z" fill="#CF6F80"/>
<path opacity="0.1" d="M192.875 154.943C185.923 152.243 176.98 143.322 179.213 139.153C179.709 138.101 180.003 136.965 180.082 135.805L189.599 143.622L195.487 148.448L199.964 137.058C200.343 139.448 200.722 141.269 200.722 141.269C200.722 141.269 199.395 143.127 198.615 143.227C197.836 143.327 202.85 158.791 192.875 154.943Z" fill="black"/>
<path d="M217.486 189.488L209.539 322.919L199.174 323.598L172.334 246.229L176.737 154.375L177.664 134.968L189.599 144.764L195.492 149.59L200.101 137.868L208.67 145.332L217.486 189.488Z" fill="#2754A8"/>
<path opacity="0.1" d="M183.184 323.593C182.831 324.465 182.563 325.37 182.383 326.293C174.841 325.13 167.516 322.843 160.653 319.509L160.51 319.435L160.558 318.588L160.584 318.145L163.217 313.24C163.217 313.24 184.448 320.504 183.184 323.593Z" fill="black"/>
<path opacity="0.1" d="M201.886 326.314C199.958 326.642 198.013 326.864 196.061 326.978C195.945 324.346 195.877 322.535 195.877 322.535L201.733 321.356L201.886 326.314Z" fill="black"/>
<path opacity="0.1" d="M217.265 323.156C213.52 324.13 207.738 325.225 202.56 324.541L202.487 321.204L216.612 318.372C216.612 318.372 217.002 320.977 217.265 323.156Z" fill="black"/>
<path opacity="0.1" d="M202.465 325.151C180.872 328.836 161.095 318.272 161.095 318.272L161.285 314.693C161.285 314.693 161.774 274.116 160.416 271.005C159.057 267.894 157.998 252.119 158.767 249.698C159.536 247.277 155.96 210.969 155.96 210.969L155.381 196.231L134.176 187.646L143.657 167.897C144.937 165.128 146.038 162.28 146.954 159.37C148.602 154.243 156.255 149.206 156.255 149.206C156.255 149.206 164.102 144.174 167.204 144.364C170.307 144.553 174.373 139.911 174.373 139.911C177.375 132.263 180.092 135.726 180.092 135.726C180.092 136.089 180.092 135.726 179.945 136.858C178.891 145.253 196.978 171.782 197.236 172.25L198.958 214.18L200.701 267.242L202.465 325.151Z" fill="black"/>
<path d="M201.886 325.151C180.292 328.836 160.51 318.272 160.51 318.272L160.705 314.693C160.705 314.693 161.195 274.116 159.831 271.005C158.467 267.894 157.413 252.119 158.188 249.698C158.962 247.277 155.38 210.969 155.38 210.969L154.796 196.231L133.581 187.614L143.061 167.866C144.339 165.095 145.44 162.247 146.358 159.339C148.002 154.212 155.66 149.175 155.66 149.175C155.66 149.175 163.507 144.143 166.604 144.332C169.701 144.522 173.772 139.879 173.772 139.879C176.779 132.231 180.092 135.695 180.092 135.695C180.092 136.058 179.776 136.221 179.945 136.826C182.262 144.969 196.398 171.75 196.656 172.218L198.4 214.148L200.143 267.21L201.886 325.151Z" fill="white"/>
<path opacity="0.1" d="M196.066 173.413C193.744 172.445 181.44 158.407 181.44 158.407V155.212C180.993 154.159 178.333 154.801 176.174 155.538L177.101 136.132L178.154 137.005C180.461 145.143 195.798 172.945 196.066 173.413Z" fill="black"/>
<path d="M196.651 172.25C194.323 171.282 182.02 157.244 182.02 157.244V154.049C181.572 152.996 178.912 153.638 176.753 154.375L177.685 134.968L178.739 135.842C181.051 143.979 196.393 171.787 196.651 172.25Z" fill="white"/>
<path opacity="0.1" d="M161.095 242.261C161.385 242.261 176.11 240.713 176.11 240.713C176.11 240.713 185.027 258.236 184.443 262.499C183.858 266.763 182.799 270.537 179.213 269.868C175.626 269.2 159.91 270.394 159.91 270.394L161.095 242.261Z" fill="black"/>
<path d="M160.51 241.097C160.8 241.097 175.526 239.55 175.526 239.55C175.526 239.55 184.437 257.078 183.858 261.336C183.279 265.594 182.209 269.373 178.628 268.705C175.047 268.036 159.325 269.231 159.325 269.231L160.51 241.097Z" fill="white"/>
<path d="M171.607 232.87C171.607 232.87 185.122 240.129 185.412 242.345C185.701 244.561 178.533 241.376 176.985 240.992C175.966 240.747 174.928 240.585 173.883 240.508L163.555 240.787L171.607 232.87Z" fill="#CF6F80"/>
<path opacity="0.1" d="M192.295 174.319C193.081 174.319 193.717 173.682 193.717 172.897C193.717 172.113 193.081 171.476 192.295 171.476C191.51 171.476 190.873 172.113 190.873 172.897C190.873 173.682 191.51 174.319 192.295 174.319Z" fill="black"/>
<path d="M192.295 173.74C193.081 173.74 193.717 173.103 193.717 172.318C193.717 171.534 193.081 170.897 192.295 170.897C191.51 170.897 190.873 171.534 190.873 172.318C190.873 173.103 191.51 173.74 192.295 173.74Z" fill="#3F3D56"/>
<path opacity="0.1" d="M194.913 235.839C195.698 235.839 196.335 235.203 196.335 234.418C196.335 233.633 195.698 232.997 194.913 232.997C194.128 232.997 193.491 233.633 193.491 234.418C193.491 235.203 194.128 235.839 194.913 235.839Z" fill="black"/>
<path d="M194.913 235.255C195.698 235.255 196.335 234.619 196.335 233.834C196.335 233.049 195.698 232.413 194.913 232.413C194.128 232.413 193.491 233.049 193.491 233.834C193.491 234.619 194.128 235.255 194.913 235.255Z" fill="#3F3D56"/>
<path opacity="0.1" d="M193.712 205.079C194.497 205.079 195.134 204.443 195.134 203.658C195.134 202.873 194.497 202.237 193.712 202.237C192.927 202.237 192.29 202.873 192.29 203.658C192.29 204.443 192.927 205.079 193.712 205.079Z" fill="black"/>
<path d="M193.712 204.5C194.497 204.5 195.134 203.864 195.134 203.079C195.134 202.294 194.497 201.658 193.712 201.658C192.927 201.658 192.29 202.294 192.29 203.079C192.29 203.864 192.927 204.5 193.712 204.5Z" fill="#3F3D56"/>
<path d="M226.492 240.213C226.492 240.213 227.462 241.666 226.492 242.345C225.523 243.024 226.587 244.666 226.587 244.666C226.587 244.666 224.17 246.082 225.234 247.356C226.298 248.63 225.623 254.383 225.623 254.383L222.716 259.194C222.716 259.194 222.89 262.294 222.901 266.484C222.901 273.021 222.516 282.211 220.388 286.401L220.683 320.777C220.683 320.777 210.503 324.493 201.981 323.362L200.717 268.2C200.717 268.2 202.56 236.918 203.24 230.918C203.637 227.803 203.799 224.662 203.724 221.522C203.724 221.522 203.435 212.132 202.46 207.774C202.46 207.774 201.407 188.893 201.302 183.667C201.254 181.167 201.386 173.871 201.533 166.934C201.697 159.349 201.881 152.196 201.881 152.196L199.958 136.995C199.958 136.995 201.881 136.8 202.46 137.574C202.72 137.816 203.002 138.033 203.303 138.221C206.621 140.463 218.345 147.359 218.345 147.359C218.345 147.359 224.833 149.938 226.387 153.633C227.941 157.328 229.021 159.949 229.774 161.002C230.527 162.055 230.938 167.002 230.938 167.002C230.938 167.002 233.171 176.108 234.914 177.65C236.657 179.193 237.932 189.004 237.932 189.004L222.527 201.11C222.527 201.11 221.173 221.249 220.883 222.028C220.594 222.807 226.492 240.213 226.492 240.213Z" fill="white"/>
<path d="M227.077 240.213C227.077 240.213 228.041 241.666 227.077 242.345C226.113 243.024 227.167 244.666 227.167 244.666C227.167 244.666 224.765 246.098 225.818 247.372C226.872 248.645 226.208 254.398 226.208 254.398L223.301 259.209C223.301 259.209 223.475 262.31 223.49 266.499C223.49 273.037 223.106 282.227 220.978 286.417L221.268 320.793C221.268 320.793 211.071 324.509 202.56 323.377L201.302 268.215C201.302 268.215 203.145 236.934 203.824 230.933C204.222 227.818 204.383 224.677 204.304 221.538C204.304 221.538 204.014 212.148 203.045 207.79C203.045 207.79 201.991 188.909 201.881 183.682C201.833 181.182 201.97 173.887 202.113 166.95C202.276 159.365 202.46 152.212 202.46 152.212L199.922 136.805C199.922 136.805 202.46 136.805 203.045 137.589C203.302 137.835 203.584 138.052 203.887 138.237C207.206 140.479 218.935 147.374 218.935 147.374C218.935 147.374 225.418 149.954 226.972 153.649C228.525 157.344 229.605 159.965 230.364 161.018C231.122 162.07 231.522 167.018 231.522 167.018C231.522 167.018 233.755 176.124 235.499 177.666C237.242 179.208 238.501 188.999 238.501 188.999L223.095 201.105C223.095 201.105 221.742 221.243 221.447 222.022C221.152 222.801 227.077 240.213 227.077 240.213Z" fill="white"/>
<path opacity="0.1" d="M208.628 156.68L210.018 160.733L202.697 168.102C202.86 160.523 203.045 153.364 203.045 153.364L200.506 137.958C200.506 137.958 203.045 137.958 203.629 138.742C203.886 138.987 204.168 139.202 204.472 139.384L210.697 157.333L208.628 156.68Z" fill="black"/>
<path d="M208.043 155.517L209.439 159.57L202.118 166.939C202.281 159.354 202.465 152.201 202.465 152.201L199.922 136.795C199.922 136.795 202.465 136.795 203.045 137.579C203.303 137.823 203.585 138.04 203.887 138.226L210.118 156.17L208.043 155.517Z" fill="white"/>
<path opacity="0.1" d="M208.043 115.414C208.047 117.311 207.748 119.196 207.158 120.999C207.059 121.014 206.957 121.01 206.859 120.985C206.762 120.961 206.67 120.917 206.589 120.857C206.452 116.119 204.119 111.672 201.249 107.887C200.443 106.745 199.466 105.733 198.352 104.887C197.226 104.042 195.825 103.646 194.423 103.776C192.843 103.992 191.447 105.066 189.852 105.203C187.745 105.376 185.859 103.918 183.768 103.845C182.918 103.853 182.08 104.042 181.309 104.4C180.538 104.757 179.852 105.275 179.297 105.919C178.198 107.217 177.382 108.73 176.901 110.361C176.072 112.834 175.621 115.418 175.563 118.025C175.536 119.499 175.394 121.346 174.025 121.883C174.128 120.799 174.005 119.706 173.663 118.672C173.321 117.638 172.768 116.686 172.039 115.877L172.008 115.846C172.008 115.698 172.008 115.561 172.008 115.414C171.967 113.023 172.403 110.648 173.29 108.427C174.177 106.206 175.498 104.184 177.175 102.479C178.853 100.774 180.853 99.4195 183.06 98.495C185.266 97.5705 187.635 97.0943 190.028 97.0943C192.421 97.0943 194.789 97.5705 196.996 98.495C199.203 99.4195 201.203 100.774 202.881 102.479C204.558 104.184 205.879 106.206 206.766 108.427C207.653 110.648 208.089 113.023 208.048 115.414H208.043Z" fill="black"/>
<path d="M197.488 86.8172C194.751 85.5306 191.639 85.2872 188.735 86.1329C187.276 86.5645 185.901 87.2646 184.421 87.6172C181.261 88.3805 177.575 87.5541 174.862 89.4016C173.356 90.4543 172.45 92.1176 171.607 93.7335L169.501 97.7443C168.353 99.9392 167.194 102.171 166.715 104.587C166.235 107.003 166.525 109.708 168.058 111.651C169.174 113.067 170.823 113.956 172.034 115.288C172.76 116.098 173.31 117.049 173.651 118.081C173.992 119.114 174.115 120.206 174.014 121.288C175.389 120.762 175.521 118.909 175.552 117.435C175.611 114.828 176.062 112.245 176.89 109.772C177.371 108.14 178.187 106.627 179.286 105.329C179.842 104.686 180.528 104.169 181.299 103.811C182.07 103.453 182.908 103.264 183.758 103.255C185.865 103.329 187.755 104.782 189.841 104.608C191.421 104.476 192.822 103.397 194.413 103.187C195.815 103.054 197.216 103.45 198.342 104.297C199.455 105.142 200.43 106.154 201.233 107.298C204.109 111.082 206.442 115.519 206.579 120.267C207.174 120.704 208.032 120.136 208.327 119.462C208.622 118.788 208.633 117.999 209.007 117.356C209.439 116.614 210.266 116.219 210.913 115.661C212.557 114.246 212.967 111.861 212.904 109.698C212.841 107.535 212.42 105.34 212.83 103.213C213.078 101.908 213.636 100.687 213.942 99.3971C214.247 98.1075 214.284 96.66 213.563 95.5494C212.509 93.9177 210.292 93.5966 208.359 93.444C206.163 93.2545 204.198 93.4966 202.797 91.6491C202.14 90.685 201.399 89.7798 200.585 88.9437C200.306 88.67 197.488 86.933 197.488 86.8172Z" fill="#512E4E"/>
<path opacity="0.1" d="M140.244 197.815L134.74 187.646L132.997 203.337C132.997 203.337 133.966 210.306 133.771 211.374C133.576 212.443 137.742 222.022 137.742 222.022C137.742 222.022 151.504 246.519 157.124 247.782L176.11 234.223L171.075 227.833C171.075 227.833 169.332 227.154 168.895 227.833C168.895 227.833 159.546 211.758 158.577 210.595C157.608 209.432 157.798 207.111 157.798 207.111C157.798 207.111 156.344 205.563 156.829 204.11C157.313 202.658 154.022 197.62 154.022 197.62L157.024 194.815L140.244 197.815Z" fill="black"/>
<path d="M135.03 186.488L133.576 187.646L131.833 203.337C131.833 203.337 132.802 210.306 132.607 211.374C132.412 212.443 136.583 222.022 136.583 222.022C136.583 222.022 150.34 246.519 155.96 247.782L174.952 234.223L169.912 227.833C169.912 227.833 168.168 227.154 167.731 227.833C167.731 227.833 158.383 211.758 157.413 210.595C156.444 209.432 156.639 207.111 156.639 207.111C156.639 207.111 155.186 205.563 155.67 204.11C156.155 202.658 152.858 197.62 152.858 197.62L155.86 194.815L135.03 186.488Z" fill="white"/>
<path opacity="0.1" d="M225.234 247.956C226.287 249.235 225.623 254.977 225.623 254.977L222.716 259.788C222.716 259.788 222.89 262.894 222.901 267.078L218.013 268.605C217.571 268.743 217.103 268.773 216.647 268.693C216.191 268.613 215.761 268.426 215.393 268.146C215.024 267.866 214.728 267.503 214.529 267.085C214.329 266.668 214.233 266.209 214.247 265.747L215.09 238.581L226.492 242.94C225.523 243.613 226.587 245.266 226.587 245.266C226.587 245.266 224.17 246.677 225.234 247.956Z" fill="black"/>
<path d="M225.818 247.372C226.872 248.651 226.208 254.398 226.208 254.398L223.301 259.209C223.301 259.209 223.475 262.31 223.49 266.499L218.513 268.052C218.081 268.186 217.622 268.216 217.176 268.137C216.73 268.059 216.309 267.875 215.948 267.601C215.588 267.327 215.298 266.971 215.103 266.562C214.908 266.154 214.813 265.704 214.827 265.252L215.675 238.002L227.082 242.361C226.108 243.034 227.172 244.682 227.172 244.682C227.172 244.682 224.765 246.098 225.818 247.372Z" fill="white"/>
<path d="M229.595 234.423C229.595 234.423 228.82 239.366 226.882 239.655C224.944 239.945 224.075 247.651 222.142 247.377C220.209 247.103 221.489 240.213 221.558 238.876C221.626 237.539 219.451 232.002 221.078 230.744C222.706 229.486 227.857 230.744 227.857 230.744L229.595 234.423Z" fill="#CF6F80"/>
<path opacity="0.1" d="M233.719 196.362L237.374 188.993C237.374 188.993 238.827 194.61 238.827 197.61C238.827 200.61 240.86 200.905 240.86 200.905C240.86 200.905 243.088 203.537 241.914 205.453C240.739 207.369 240.265 212.137 240.265 212.137C240.265 212.137 240.65 221.238 238.906 222.496C237.163 223.754 236.8 226.759 236.8 226.759C236.8 226.759 233.597 232.47 233.697 233.828C233.798 235.186 229.242 244.382 229.242 244.382C229.242 244.382 231.47 232.955 218.487 228.017C218.487 228.017 218.387 224.138 219.356 223.075C220.325 222.012 221.837 221.527 220.889 216.153C219.941 210.779 220.615 204.358 220.615 203.068C220.615 201.779 223.522 193.736 223.522 193.736L233.719 196.362Z" fill="black"/>
<path d="M235.299 187.941L238.49 188.993C238.49 188.993 239.949 194.61 239.949 197.61C239.949 200.61 241.982 200.905 241.982 200.905C241.982 200.905 244.21 203.537 243.035 205.453C241.861 207.369 241.392 212.137 241.392 212.137C241.392 212.137 241.777 221.238 240.033 222.496C238.29 223.754 237.9 226.759 237.9 226.759C237.9 226.759 234.703 232.47 234.803 233.828C234.904 235.186 230.342 244.382 230.342 244.382C230.342 244.382 232.576 232.955 219.588 228.017C219.588 228.017 219.493 224.138 220.462 223.075C221.431 222.012 222.943 221.528 221.995 216.153C221.047 210.779 221.721 204.358 221.721 203.068C221.721 201.779 224.628 193.736 224.628 193.736L235.299 187.941Z" fill="white"/>
<path opacity="0.1" d="M164.803 378.94C164.803 378.94 169.89 375.745 173.23 378.066C176.569 380.387 164.803 378.94 164.803 378.94Z" fill="black"/>
<path opacity="0.1" d="M204.335 369.06C204.335 369.06 208.838 368.481 212.62 372.55C216.401 376.618 204.335 369.06 204.335 369.06Z" fill="black"/>
<g opacity="0.1">
<path d="M210.924 114.509C210.276 115.067 209.444 115.467 209.012 116.209C208.643 116.846 208.633 117.63 208.338 118.314C208.043 118.999 207.184 119.557 206.589 119.125C206.452 114.388 204.114 109.94 201.244 106.15C200.441 105.007 199.466 103.994 198.352 103.15C197.225 102.303 195.822 101.907 194.418 102.039C192.838 102.255 191.447 103.329 189.852 103.461C187.745 103.64 185.854 102.182 183.763 102.108C182.913 102.116 182.075 102.306 181.305 102.665C180.535 103.023 179.85 103.542 179.297 104.187C178.197 105.483 177.381 106.994 176.901 108.624C176.073 111.097 175.622 113.681 175.563 116.288C175.531 117.756 175.394 119.588 174.035 120.136C174.067 120.524 174.067 120.915 174.035 121.304C175.405 120.778 175.542 118.925 175.573 117.451C175.632 114.844 176.083 112.26 176.911 109.787C177.392 108.156 178.208 106.643 179.307 105.345C179.862 104.702 180.547 104.185 181.317 103.827C182.087 103.469 182.925 103.28 183.774 103.271C185.88 103.345 187.776 104.797 189.862 104.624C191.442 104.492 192.843 103.413 194.428 103.203C195.832 103.07 197.235 103.466 198.363 104.313C199.476 105.158 200.452 106.17 201.254 107.313C204.124 111.098 206.463 115.535 206.6 120.283C207.195 120.72 208.054 120.151 208.348 119.478C208.643 118.804 208.654 118.014 209.023 117.372C209.454 116.63 210.287 116.235 210.934 115.677C212.578 114.261 212.988 111.877 212.925 109.714C212.925 109.645 212.925 109.577 212.925 109.514C212.825 111.387 212.325 113.298 210.924 114.509Z" fill="black"/>
<path d="M172.045 114.135C170.833 112.803 169.179 111.914 168.068 110.503C167.132 109.254 166.598 107.751 166.536 106.192C166.37 108.14 166.914 110.083 168.068 111.661C169.179 113.077 170.833 113.967 172.045 115.298C173.208 116.601 173.906 118.252 174.03 119.993C174.111 118.934 173.976 117.868 173.635 116.862C173.294 115.855 172.753 114.928 172.045 114.135Z" fill="black"/>
<path d="M213.952 98.2444C213.642 99.5339 213.089 100.76 212.836 102.06C212.686 102.929 212.631 103.812 212.672 104.692C212.69 104.191 212.745 103.691 212.836 103.197C213.089 101.892 213.642 100.671 213.952 99.3813C214.133 98.67 214.192 97.9332 214.126 97.2022C214.093 97.5533 214.035 97.9016 213.952 98.2444Z" fill="black"/>
</g>
<path opacity="0.1" d="M69.9059 400.341C98.2489 400.341 121.225 396.653 121.225 392.104C121.225 387.554 98.2489 383.866 69.9059 383.866C41.563 383.866 18.5865 387.554 18.5865 392.104C18.5865 396.653 41.563 400.341 69.9059 400.341Z" fill="#2754A8"/>
<path d="M71.5597 234.302H68.2574V308.608H71.5597V234.302Z" fill="#535461"/>
<path d="M92.3108 308.382L92.1054 311.729L91.8105 316.466L91.6893 318.435L91.3997 323.172L91.2732 325.141L90.9783 329.878L87.6497 383.603C87.505 385.915 86.4844 388.084 84.7956 389.67C83.1068 391.256 80.8767 392.14 78.5592 392.141H61.2526C58.9357 392.14 56.7062 391.256 55.0182 389.67C53.3303 388.084 52.3108 385.914 52.1674 383.603L48.8546 329.841L48.5597 325.104L48.4386 323.135L48.1436 318.398L48.0225 316.43L47.7275 311.692L47.5169 308.345C47.4803 307.7 47.5758 307.055 47.7976 306.449C48.0193 305.843 48.3627 305.289 48.8065 304.82C49.2504 304.351 49.7854 303.978 50.3787 303.724C50.9721 303.469 51.6112 303.338 52.257 303.339H87.655C88.2983 303.345 88.9336 303.482 89.5218 303.742C90.11 304.003 90.6385 304.381 91.0748 304.853C91.5111 305.326 91.8458 305.883 92.0584 306.49C92.271 307.096 92.3569 307.74 92.3108 308.382Z" fill="#3F3D56"/>
<path d="M92.1054 311.729L91.8105 316.451H48.0014L47.7065 311.729H92.1054Z" fill="#9D9CB5"/>
<path d="M91.6893 318.419L91.3997 323.146H48.4175L48.1226 318.419H91.6893Z" fill="#9D9CB5"/>
<path d="M91.2733 325.12L90.9836 329.841H48.8336L48.5386 325.12H91.2733Z" fill="#9D9CB5"/>
<path d="M42.6662 262.152C61.8952 276.058 69.9217 297.807 69.9217 297.807C69.9217 297.807 46.7479 297.012 27.5137 283.106C8.27939 269.2 0.268616 247.456 0.268616 247.456C0.268616 247.456 23.4319 248.245 42.6662 262.152Z" fill="#2754A8"/>
<path d="M0.252808 247.456C0.252808 247.456 24.3115 260.799 32.0273 271.847C39.7431 282.895 69.9217 297.807 69.9217 297.807" stroke="#535461" stroke-width="2" stroke-miterlimit="10"/>
<path d="M55.08 234.139C65.5451 241.703 69.9217 253.54 69.9217 253.54C69.9217 253.54 57.3078 253.109 46.8375 245.545C36.3671 237.981 32.0009 226.138 32.0009 226.138C32.0009 226.138 44.6096 226.57 55.08 234.139Z" fill="#2754A8"/>
<path d="M32.0009 226.138C32.0009 226.138 45.0942 233.402 49.2918 239.413C53.4894 245.424 69.9217 253.54 69.9217 253.54" stroke="#535461" stroke-width="2" stroke-miterlimit="10"/>
<path d="M85.1164 252.94C73.0923 266.147 70.5485 283.406 70.5485 283.406C70.5485 283.406 87.5022 279.248 99.5158 266.036C111.529 252.825 114.084 235.571 114.084 235.571C114.084 235.571 97.1404 239.734 85.1164 252.94Z" fill="#2754A8"/>
<path d="M114.094 235.576C114.094 235.576 98.4308 249.114 94.4491 258.441C90.4674 267.768 70.5485 283.406 70.5485 283.406" stroke="#535461" stroke-width="2" stroke-miterlimit="10"/>
<path d="M526.504 248.293C526.504 248.293 517.808 205.058 521.137 199.678C521.137 199.678 521.258 194.678 521.058 188.304C521.058 188.062 521.058 187.82 521.058 187.572C521.644 187.962 522.254 188.314 522.886 188.625C525.953 190.2 529.473 190.654 532.84 189.909L530.206 186.977C529.574 186.277 528.916 185.519 528.779 184.593C528.642 183.667 529.022 182.84 529.348 182.014C531.85 175.698 531.981 167.755 527.162 162.934C523.091 158.881 522.101 153.649 517.682 149.948C514.454 147.238 512.679 143.264 511.004 139.421C509.587 136.174 508.16 132.9 507.349 129.457C506.717 126.768 506.464 123.983 505.595 121.357C504.726 118.73 503.098 116.177 500.555 115.004C499.649 114.588 498.643 114.351 497.816 113.798C496.731 113.067 496.078 111.877 495.293 110.835C491.306 105.571 477.955 108.671 471.635 110.809C469.916 111.347 468.325 112.228 466.958 113.398L467.016 113.303C467.063 113.224 467.121 113.146 467.174 113.067C466.482 113.626 465.884 114.292 465.404 115.04C464.482 116.498 464.098 118.199 463.329 119.778C462.402 121.646 457.246 126.862 459.463 128.963C459.619 129.104 459.797 129.217 459.99 129.299C460.822 129.646 461.739 129.737 462.623 129.563L462.528 129.789C461.771 131.642 461.383 133.625 461.386 135.626C461.386 144.274 468.522 151.285 477.333 151.285C478.99 151.287 480.637 151.033 482.216 150.533C482.252 150.733 482.284 150.933 482.321 151.133C482.321 151.212 482.347 151.291 482.358 151.37L482.079 151.759C482.065 151.735 482.049 151.712 482.031 151.691L473.762 163.239C472.498 164.128 465.22 169.392 464.809 173.34C464.377 177.661 463.945 182.719 463.945 182.719L463.887 183.804C463.526 184.105 463.103 184.325 462.649 184.448C462.194 184.571 461.718 184.593 461.254 184.514C458.673 184.093 458.673 193.989 458.673 193.989C458.673 193.989 456.956 195.568 455.776 194.199C454.597 192.831 451.479 197.468 451.479 197.468L431.939 198.31L431.491 198.336L430.438 195.078C430.325 194.734 430.08 194.449 429.758 194.285C429.435 194.12 429.061 194.089 428.716 194.199C428.634 194.226 428.555 194.259 428.479 194.299L428.405 194.341L428.268 194.436L428.2 194.499C428.162 194.533 428.127 194.57 428.094 194.61L428.031 194.683L427.999 194.715C427.878 194.883 427.797 195.077 427.764 195.282C427.731 195.487 427.747 195.696 427.81 195.894L428.716 198.689C424.945 199.447 421.089 201.584 424.234 207.469L408.296 204.526L413.453 208.853L440.071 214.343C439.718 214.974 439.95 215.89 441.05 217.18C445.791 222.743 454.428 224.254 457.904 224.644C458.822 226.696 459.969 228.638 461.322 230.433L461.022 235.976C461.022 235.976 452.221 278.221 450.61 280.364C451.423 279.442 452.168 278.462 452.838 277.432C450.283 286.111 446.712 297.991 445.775 299.77C444.268 302.613 442.873 314.114 444.59 314.85C445.116 315.077 446.623 314.966 448.772 314.803V315.756L448.677 351.859C448.677 351.859 449.109 374.002 447.924 376.113C446.739 378.224 446.423 382.65 446.423 382.65C446.423 382.65 441.682 391.383 437.927 394.893C437.902 394.921 437.873 394.945 437.843 394.967L437.727 394.146C437.727 394.146 433.214 399.841 423.228 399.52C423.228 399.52 417.218 403.426 426.13 403.636C435.041 403.847 446.423 403.32 446.423 403.32C446.423 403.32 454.37 391.214 461.027 392.793V401.968H463.066V392.646C464.011 392.024 464.82 391.217 465.444 390.273C466.067 389.329 466.493 388.269 466.694 387.156C466.869 386.009 466.741 384.836 466.324 383.753C465.906 382.671 465.213 381.715 464.314 380.982C463.91 380.617 463.585 380.172 463.362 379.676C463.138 379.179 463.019 378.642 463.013 378.097L462.939 378.161C462.939 377.976 462.892 377.787 462.871 377.592C462.286 372.855 461.554 363.08 464.14 355.848C467.685 345.932 468.759 332.12 466.178 323.899C465.346 321.27 464.662 318.598 464.129 315.893C464.066 315.551 464.008 315.224 463.956 314.919C465.72 315.157 467.467 315.509 469.186 315.972C475.163 317.619 488.241 317.924 499.406 317.835C499.433 318.14 499.464 318.461 499.501 318.782C499.7 321.014 500.117 323.221 500.744 325.372C502.145 329.583 502.788 348.148 502.788 348.148C502.788 348.148 504.594 363.412 503.609 369.623C503.083 373.076 502.556 376.545 502.256 380.029V380.098C502.256 380.098 499.296 388.519 497.131 393.093C497.078 393.209 497.021 393.325 496.968 393.435C496.391 393.488 495.823 393.614 495.277 393.809C495.277 393.809 492.375 399.599 489.484 400.557C486.592 401.515 487.551 404.668 494.097 403.51C500.644 402.352 510.53 401.404 510.53 401.404L510.956 395.499L512.968 392.983L512.442 398.873L514.585 398.452L514.301 391.288L517.593 387.172C517.593 387.172 521.569 383.635 515.66 376.676V376.829C515.596 376.729 515.539 376.624 515.47 376.524V376.492C514.49 374.976 513.711 372.15 515.138 367.133C517.719 358.07 519.22 349.843 519.22 349.843C519.22 349.843 524.982 327.804 518.056 317.377H518.361C517.652 315.91 517.15 314.351 516.871 312.745C516.836 312.556 516.804 312.361 516.776 312.161C521.901 311.866 526.931 310.94 531.033 308.939C531.018 308.918 528.547 256.62 526.504 248.293ZM461.443 211.816V211.922L460.39 211.974L461.443 211.816ZM457.83 212.316C457.657 212.355 457.495 212.432 457.356 212.543C456.904 213.183 456.619 213.927 456.53 214.706L454.886 214.337C454.886 214.337 453.733 214.09 452.074 213.811L451.289 213.022C453.448 212.843 455.692 212.579 457.83 212.316Z" fill="url(#paint1_linear_1_36)"/>
<path d="M512.199 391.362L511.573 398.82L513.674 398.399L513.358 390.309L512.199 391.362Z" fill="#1D2366"/>
<path d="M464.256 355.948C461.723 363.159 462.439 372.892 463.008 377.618C463.218 379.366 463.413 380.429 463.413 380.429C463.413 380.429 459.626 389.051 459.31 389.377C458.994 389.704 448.166 396.309 448.166 396.309L440.598 400.725C440.598 400.725 432.919 397.362 436.6 396.204C437.352 395.902 438.03 395.441 438.586 394.851C442.272 391.351 446.902 382.65 446.902 382.65C446.902 382.65 447.218 378.234 448.377 376.134C449.535 374.034 449.114 351.964 449.114 351.964L449.203 315.987V311.298L463.608 311.403C463.699 312.995 463.907 314.578 464.23 316.14C464.747 318.836 465.417 321.5 466.236 324.12C468.775 332.325 467.721 346.069 464.256 355.948Z" fill="#FFB0B1"/>
<path opacity="0.1" d="M463.413 380.429C463.413 380.429 459.626 389.051 459.31 389.377C458.994 389.704 448.166 396.309 448.166 396.309L440.598 400.725C440.598 400.725 432.919 397.362 436.6 396.204C437.352 395.902 438.03 395.441 438.586 394.851L438.912 397.151L441.435 397.046L463.029 377.629C463.218 379.366 463.413 380.429 463.413 380.429Z" fill="black"/>
<path d="M463.15 378.118L441.435 397.667L438.912 397.773L438.385 394.088C438.385 394.088 433.972 399.762 424.165 399.446C424.165 399.446 418.277 403.336 427.004 403.547C435.731 403.757 446.875 403.231 446.875 403.231C446.875 403.231 454.66 391.125 461.175 392.704V401.847H463.176V392.62C464.107 391.994 464.901 391.186 465.511 390.245C466.121 389.304 466.534 388.25 466.726 387.145C466.899 386.008 466.777 384.844 466.37 383.768C465.963 382.691 465.286 381.737 464.403 380.998C464.009 380.628 463.695 380.182 463.479 379.687C463.264 379.192 463.152 378.658 463.15 378.118Z" fill="#1D2366"/>
<path d="M514.201 367.191C512.8 372.192 513.563 375.008 514.522 376.518V376.55C515.751 378.415 516.606 380.501 517.039 382.693L517.124 383.166L507.243 397.562L501.882 399.668C501.882 399.668 493.26 396.725 494.835 395.883C495.23 395.678 495.846 394.583 496.552 393.072C498.658 388.519 501.566 380.119 501.566 380.119V380.05C501.871 376.582 502.356 373.123 502.893 369.681C503.857 363.486 502.087 348.279 502.087 348.279C502.087 348.279 501.455 329.788 500.086 325.583C499.468 323.445 499.057 321.252 498.859 319.035C498.574 316.403 498.511 314.235 498.511 314.235C498.511 314.235 504.189 306.339 514.596 314.866C515.428 315.546 516.16 316.34 516.771 317.224C523.96 327.446 518.172 349.964 518.172 349.964C518.172 349.964 516.724 358.154 514.201 367.191Z" fill="#FFB0B1"/>
<path opacity="0.1" d="M517.14 383.166L507.259 397.562L501.898 399.667C501.898 399.667 493.276 396.725 494.851 395.883C495.246 395.678 495.862 394.583 496.568 393.072C500.217 393.041 502.108 396.515 502.108 396.515L506.732 395.778C506.732 395.778 512.831 383.798 514.201 383.066C515.57 382.335 514.411 377.597 514.411 377.597V376.392C514.448 376.434 514.48 376.481 514.522 376.524V376.555C515.751 378.42 516.606 380.507 517.04 382.698L517.14 383.166Z" fill="black"/>
<path d="M502.424 396.825C502.424 396.825 499.791 391.993 494.745 393.778C494.745 393.778 491.907 399.567 489.068 400.504C486.229 401.441 487.177 404.599 493.592 403.447C500.007 402.294 509.677 401.341 509.677 401.341L510.098 395.451L516.618 387.151C516.618 387.151 520.505 383.629 514.722 376.697V377.903C514.722 377.903 515.881 382.64 514.512 383.371C513.142 384.103 507.064 396.088 507.064 396.088L502.424 396.825Z" fill="#1D2366"/>
<path opacity="0.1" d="M463.624 311.392C463.715 312.984 463.923 314.568 464.245 316.129C458.315 315.261 452.811 315.693 449.203 315.977V311.287L463.624 311.392Z" fill="black"/>
<path opacity="0.1" d="M517.356 318.535C517.356 318.535 508.929 318.946 498.88 319.03C498.595 316.398 498.532 314.229 498.532 314.229C498.532 314.229 504.21 306.334 514.617 314.861C515.449 315.541 516.181 316.335 516.792 317.219C516.955 317.668 517.143 318.107 517.356 318.535Z" fill="black"/>
<path d="M517.356 317.587C517.356 317.587 480.446 319.372 469.196 316.219C457.946 313.066 446.797 315.798 445.116 315.066C443.436 314.335 444.8 302.876 446.275 300.039C447.75 297.202 455.84 268.51 455.84 268.51L463.624 227.949L471.824 225.691L472.404 225.528L486.692 221.591L497.163 218.701C497.163 218.701 517.982 299.934 516.197 305.923C515.548 308.217 515.444 310.63 515.891 312.971C516.164 314.57 516.657 316.124 517.356 317.587Z" fill="#1D2366"/>
<path d="M436.489 200.21C436.489 200.21 429.116 208.105 434.699 212.506C440.282 216.906 443.952 212.927 443.952 212.927L436.489 200.21Z" fill="#C7DAF5"/>
<path opacity="0.1" d="M436.489 200.21C436.489 200.21 429.116 208.105 434.699 212.506C440.282 216.906 443.952 212.927 443.952 212.927L436.489 200.21Z" fill="black"/>
<path d="M496.062 148.301C496.062 148.301 495.198 149.122 493.897 150.333C492.043 152.064 489.299 154.596 486.866 156.717C483.495 159.649 480.715 161.802 481.71 159.965C482.705 158.128 482.516 154.928 482.021 151.933C481.984 151.733 481.952 151.533 481.915 151.338C481.505 149.138 480.962 146.966 480.288 144.832C480.288 144.832 485.734 137.8 488.746 135.026C489.868 133.973 490.653 133.542 490.7 134.273C490.753 135.258 491.49 137.432 492.407 139.737C492.433 139.811 492.46 139.879 492.491 139.953C493.102 141.532 493.792 143.153 494.398 144.553C495.325 146.701 496.062 148.301 496.062 148.301Z" fill="#FFB0B1"/>
<path opacity="0.1" d="M492.491 139.953C491.979 142.704 490.738 145.267 488.896 147.374C487.054 149.482 484.68 151.056 482.021 151.933C481.602 149.53 481.023 147.158 480.288 144.832C480.288 144.832 490.542 131.594 490.7 134.273C490.737 135.289 491.538 137.542 492.491 139.953Z" fill="black"/>
<path opacity="0.1" d="M480.999 155.47L482.326 153.601C482.326 153.601 483.206 158.96 486.44 156.596C489.673 154.233 489.831 174.382 489.831 174.382L486.361 226.244L461.28 224.744L461.991 199.684L464.83 187.051L471.851 168.687L476.027 162.618L480.999 155.47Z" fill="black"/>
<path d="M489.831 174.703L486.671 221.596L486.339 226.565L472.356 225.728L471.829 225.696L461.296 225.065L462.007 200L464.846 187.367L471.866 169.002L476.043 162.934L481.015 155.759L482.342 153.896C482.342 153.896 483.222 159.254 486.455 156.891L486.524 156.844C489.684 154.843 489.831 174.703 489.831 174.703Z" fill="#1D2366"/>
<path d="M465.199 182.977C465.199 182.977 463.94 185.609 461.412 185.183C458.884 184.756 458.889 194.657 458.889 194.657C458.889 194.657 457.209 196.236 456.05 194.868C454.892 193.499 451.837 198.126 451.837 198.126L432.697 198.968C432.697 198.968 441.214 202.858 439.544 214.627C439.544 214.627 468.459 212.837 469.407 210.106C470.355 207.374 465.199 182.977 465.199 182.977Z" fill="white"/>
<path opacity="0.03" d="M465.199 182.977C465.199 182.977 463.94 185.609 461.412 185.183C458.884 184.756 458.889 194.657 458.889 194.657C458.889 194.657 457.209 196.236 456.05 194.868C454.892 193.499 451.837 198.126 451.837 198.126L432.697 198.968C432.697 198.968 441.214 202.858 439.544 214.627C439.544 214.627 468.459 212.837 469.407 210.106C470.355 207.374 465.199 182.977 465.199 182.977Z" fill="black"/>
<path d="M409.576 205.153L414.622 209.458L456.156 218.18L451.005 212.927L409.576 205.153Z" fill="white"/>
<path d="M481.078 157.128C480.388 158.181 478.413 163.57 476.765 168.276C475.39 172.197 474.242 175.645 474.242 175.645C474.242 175.645 471.561 193.088 470.192 196.241C468.822 199.394 469.565 211.69 469.565 211.69L464.461 242.055C464.461 242.055 462.149 257.714 458.578 267.068C455.055 276.274 451.131 280.59 451.01 280.727C452.59 278.59 461.201 236.513 461.201 236.513L464.045 183.446C464.045 183.446 464.461 178.403 464.883 174.092C465.304 169.781 473.836 163.897 473.836 163.897L482.063 152.206C482.89 153.312 482.337 155.238 481.078 157.128Z" fill="white"/>
<path d="M459.626 225.328C459.626 225.328 447.513 224.801 441.646 217.759C435.778 210.716 455.208 214.948 455.208 214.948L460.258 216.106L459.626 225.328Z" fill="#FFB0B1"/>
<path opacity="0.1" d="M516.197 305.929C515.548 308.222 515.444 310.636 515.891 312.977C502.677 313.914 488.541 310.345 488.541 310.345C485.908 312.766 478.971 316.335 478.971 316.335L475.19 269.489C472.772 263.173 471.824 230.081 471.824 230.081C471.824 230.081 472.04 228.349 472.351 225.754C472.351 225.691 472.351 225.623 472.377 225.559C473.32 218.311 475.19 204.705 476.106 202.868C477.37 200.342 472.219 193.62 472.219 193.62L474.563 173.645L474.847 171.234C479.788 169.029 483.574 161.986 483.574 161.986L486.482 156.896C489.642 154.87 489.805 174.729 489.805 174.729L486.645 221.622L497.115 218.733C497.115 218.733 517.982 299.939 516.197 305.929Z" fill="black"/>
<path d="M529.759 309.166C515.354 316.314 489.173 309.692 489.173 309.692C486.54 312.113 479.603 315.682 479.603 315.682L475.816 268.836C473.404 262.52 472.456 229.428 472.456 229.428C472.456 229.428 475.5 204.737 476.764 202.216C477.133 201.479 476.954 200.384 476.517 199.205C474.368 193.593 473.577 187.553 474.21 181.577L475.221 172.992L475.5 170.587C480.446 168.376 484.233 161.333 484.233 161.333L486.866 156.723L491.712 148.227L494.008 144.206L494.398 144.558L497.373 147.253C497.373 147.253 498.637 148.306 500.533 149.885C504.657 153.359 511.783 159.475 515.459 163.218C518.693 166.513 519.715 179.33 520.01 188.978C520.205 195.331 520.089 200.31 520.089 200.31C516.829 205.674 525.356 248.735 525.356 248.735C527.341 257.057 529.759 309.166 529.759 309.166Z" fill="white"/>
<path opacity="0.03" d="M502.108 161.228C502.108 161.228 492.223 180.035 493.371 187.183C494.519 194.331 497.784 202.421 496.209 204.31C495.668 205.026 494.969 205.607 494.166 206.008C493.363 206.409 492.478 206.619 491.58 206.621C490 206.726 485.786 209.669 485.786 209.985C485.786 210.3 481.894 210.3 478.413 211.774C474.932 213.248 469.791 214.085 469.791 214.085C469.791 214.085 459.784 213.769 458.852 214.716C457.92 215.664 456.961 221.333 458.958 225.854C460.954 230.376 463.171 233.75 464.846 234.365C466.521 234.981 477.149 231.423 485.771 230.581C494.392 229.739 503.751 222.912 503.751 222.912C503.751 222.912 514.059 219.227 515.865 213.032C517.672 206.837 513.658 172.787 513.658 172.787C513.658 172.787 510.625 156.917 502.108 161.228Z" fill="black"/>
<path opacity="0.03" d="M500.844 159.649C500.844 159.649 490.958 178.461 492.117 185.604C493.276 192.746 496.531 200.842 494.951 202.737C494.412 203.453 493.713 204.035 492.911 204.436C492.108 204.837 491.224 205.046 490.326 205.047C488.746 205.153 484.533 208.095 484.533 208.411C484.533 208.727 480.641 208.727 477.159 210.195C473.678 211.664 468.538 212.506 468.538 212.506C468.538 212.506 458.531 212.19 457.604 213.137C456.677 214.085 455.708 219.759 457.709 224.275C459.711 228.791 461.923 232.17 463.598 232.786C465.272 233.402 475.901 229.844 484.522 229.007C493.144 228.17 502.503 221.333 502.503 221.333C502.503 221.333 512.805 217.648 514.591 211.458C516.376 205.268 512.384 171.208 512.384 171.208C512.384 171.208 509.361 155.344 500.844 159.649Z" fill="black"/>
<path d="M501.797 160.281C501.797 160.281 491.912 179.093 493.07 186.235C494.229 193.378 497.484 201.473 495.909 203.363C495.37 204.081 494.671 204.665 493.868 205.066C493.064 205.468 492.178 205.678 491.28 205.679C489.7 205.784 485.486 208.727 485.486 209.037C485.486 209.348 481.599 209.353 478.113 210.827C474.626 212.3 469.491 213.137 469.491 213.137C469.491 213.137 459.484 212.822 458.552 213.769C457.62 214.716 456.661 220.391 458.657 224.907C460.653 229.423 462.871 232.802 464.546 233.418C466.22 234.034 476.849 230.476 485.47 229.633C494.092 228.791 503.451 221.964 503.451 221.964C503.451 221.964 513.758 218.28 515.565 212.085C517.371 205.889 513.384 171.839 513.384 171.839C513.384 171.839 510.309 155.996 501.797 160.281Z" fill="white"/>
<path opacity="0.1" d="M501.582 210.737C501.582 210.737 493.681 209.158 496.431 211.79C499.18 214.422 499.164 216.727 502.53 216.622C505.895 216.517 501.582 210.737 501.582 210.737Z" fill="black"/>
<path opacity="0.1" d="M514.933 267.363C514.933 267.363 511.362 269.779 518.193 275.347C525.024 280.916 514.933 267.363 514.933 267.363Z" fill="black"/>
<path opacity="0.1" d="M508.118 287.222C508.118 287.538 506.854 298.802 511.583 301.618C516.313 304.434 508.118 287.222 508.118 287.222Z" fill="black"/>
<path d="M433.024 198.942C429.211 199.073 420.973 200.236 425.245 208.2C429.021 215.248 435.368 210.537 438.938 206.963C438.067 203.631 435.95 200.76 433.024 198.942Z" fill="#FFB0B1"/>
<path opacity="0.1" d="M500.533 150.206C496.489 152.97 493.097 155.301 492.433 155.786C490.621 157.128 487.166 165.007 484.939 169.029C483.164 172.266 477.396 173.097 475.221 173.303L475.5 170.897C480.446 168.687 484.233 161.644 484.233 161.644L494.008 144.516L497.373 147.574C497.373 147.574 498.637 148.627 500.533 150.206Z" fill="black"/>
<path d="M500.533 149.89C496.489 152.654 493.097 154.986 492.433 155.475C490.621 156.812 487.166 164.692 484.939 168.713C483.164 171.95 477.396 172.782 475.221 172.987L475.5 170.581C480.446 168.371 484.233 161.328 484.233 161.328L494.008 144.201L497.373 147.248C497.373 147.248 498.637 148.29 500.533 149.89Z" fill="#DCE7FF"/>
<path d="M492.749 136.479C492.751 139.639 491.793 142.724 490 145.327C487.883 148.404 484.732 150.621 481.119 151.575C477.506 152.529 473.671 152.158 470.309 150.527C466.947 148.897 464.281 146.117 462.795 142.69C461.309 139.264 461.101 135.418 462.209 131.852C463.318 128.285 465.668 125.234 468.835 123.251C472.002 121.269 475.775 120.486 479.469 121.046C483.164 121.606 486.535 123.471 488.972 126.302C491.408 129.134 492.749 132.744 492.749 136.479Z" fill="#FFB0B1"/>
<path opacity="0.1" d="M520.01 188.983C517.871 187.668 516.129 185.798 514.97 183.572C514.09 181.835 513.506 179.83 512.005 178.598C510.651 177.493 508.844 177.224 507.159 176.729C501.618 175.092 496.973 170.039 496.799 164.27C496.715 161.554 497.563 158.844 497.179 156.154C496.96 154.632 496.354 153.191 495.419 151.97C494.955 151.385 494.446 150.838 493.897 150.333C493.16 149.638 492.386 148.964 491.712 148.227C491.287 147.771 490.916 147.268 490.606 146.727C490.355 146.285 490.152 145.817 490 145.332C488.947 142.111 489.905 138.29 488.746 135.031L488.683 134.852C488.246 133.694 487.356 132.536 486.118 132.447C484.881 132.358 483.822 133.384 482.642 133.842C480.172 134.8 477.507 133.168 475.448 131.505C473.389 129.842 471.066 127.941 468.448 128.31C466.716 128.557 465.346 129.736 463.75 130.347C463.39 130.486 463.018 130.594 462.639 130.668C463.99 127.302 466.471 124.511 469.657 122.775C472.842 121.038 476.534 120.465 480.097 121.153C483.659 121.842 486.871 123.748 489.18 126.546C491.489 129.344 492.751 132.858 492.749 136.484C492.751 137.579 492.636 138.671 492.407 139.742C492.433 139.816 492.46 139.884 492.491 139.958C493.102 141.537 493.792 143.158 494.398 144.558L497.373 147.253C497.373 147.253 498.637 148.306 500.533 149.885C504.657 153.359 511.783 159.475 515.46 163.218C518.693 166.523 519.705 179.335 520.01 188.983Z" fill="black"/>
<path d="M463.566 120.73C464.319 119.199 464.693 117.483 465.594 116.03C466.916 113.925 469.222 112.577 471.592 111.761C477.781 109.629 490.858 106.534 494.766 111.761C495.535 112.814 496.173 113.982 497.236 114.709C498.047 115.261 499.027 115.498 499.917 115.914C502.408 117.083 503.999 119.63 504.847 122.23C505.695 124.831 505.948 127.62 506.569 130.299C507.364 133.737 508.76 136.995 510.151 140.232C511.788 144.053 513.527 148.017 516.687 150.717C521 154.401 521.953 159.617 525.956 163.66C530.696 168.46 530.543 176.382 528.1 182.672C527.778 183.498 527.415 184.361 527.541 185.24C527.668 186.12 528.321 186.92 528.937 187.62L531.528 190.541C525.398 192.02 518.461 188.82 515.607 183.204C514.727 181.467 514.143 179.466 512.636 178.229C511.288 177.124 509.476 176.861 507.796 176.366C502.256 174.724 497.61 169.666 497.437 163.897C497.352 161.186 498.2 158.475 497.816 155.791C497.602 154.258 496.994 152.808 496.051 151.58C494.603 149.69 492.417 148.422 491.238 146.316C489.241 142.795 490.758 138.221 489.32 134.442C488.878 133.284 487.993 132.126 486.756 132.036C485.518 131.947 484.459 132.973 483.274 133.431C480.809 134.389 478.144 132.763 476.085 131.094C474.026 129.426 471.703 127.531 469.08 127.905C467.347 128.147 465.983 129.326 464.388 129.942C463.208 130.394 460.817 130.799 459.784 129.805C457.604 127.799 462.655 122.604 463.566 120.73Z" fill="#591D4B"/>
<path opacity="0.1" d="M517.071 181.467C516.186 179.73 515.607 177.729 514.101 176.498C512.752 175.392 510.941 175.124 509.255 174.629C503.72 172.992 499.075 167.934 498.895 162.165C498.811 159.454 499.659 156.738 499.28 154.054C499.059 152.531 498.452 151.091 497.516 149.869C496.062 147.98 493.876 146.711 492.702 144.606C490.706 141.09 492.222 136.516 490.779 132.731C490.342 131.578 489.452 130.421 488.22 130.326C486.987 130.231 485.918 131.268 484.738 131.726C482.274 132.684 479.603 131.052 477.549 129.389C475.495 127.726 473.162 125.825 470.544 126.194C468.812 126.441 467.442 127.62 465.852 128.231C464.672 128.684 462.276 129.094 461.243 128.099C459.073 125.994 464.124 120.809 465.03 118.946C465.783 117.409 466.157 115.698 467.063 114.246C467.11 114.167 467.163 114.088 467.216 114.009C466.538 114.57 465.953 115.234 465.483 115.977C464.582 117.43 464.208 119.135 463.455 120.678C462.544 122.541 457.493 127.741 459.669 129.831C460.722 130.831 463.092 130.421 464.272 129.968C465.852 129.352 467.232 128.173 468.964 127.931C471.598 127.557 473.915 129.457 475.969 131.121C478.023 132.784 480.709 134.416 483.164 133.458C484.343 133 485.376 131.968 486.64 132.063C487.904 132.157 488.746 133.31 489.205 134.468C490.642 138.247 489.126 142.821 491.122 146.343C492.301 148.411 494.487 149.706 495.936 151.606C496.878 152.834 497.486 154.285 497.7 155.817C498.084 158.502 497.236 161.212 497.321 163.923C497.495 169.713 502.14 174.75 507.68 176.392C509.35 176.887 511.172 177.15 512.521 178.256C514.032 179.493 514.627 181.493 515.491 183.23C518.346 188.846 525.282 192.046 531.413 190.567L530.191 189.188C524.876 189.267 519.499 186.246 517.071 181.467Z" fill="black"/>
<path opacity="0.1" d="M480.762 157.444C480.072 158.496 478.097 163.886 476.449 168.592C474.905 167.992 473.504 164.165 473.504 164.165L481.731 152.47C482.574 153.628 482.021 155.549 480.762 157.444Z" fill="black"/>
<path d="M481.078 157.128C480.388 158.181 478.413 163.57 476.764 168.276C475.221 167.681 473.82 163.849 473.82 163.849L482.047 152.159C482.89 153.312 482.337 155.238 481.078 157.128Z" fill="#DCE7FF"/>
<path d="M433.245 210.9L428.684 196.526C428.63 196.357 428.61 196.18 428.625 196.004C428.639 195.828 428.689 195.656 428.77 195.499C428.851 195.342 428.963 195.203 429.098 195.089C429.233 194.975 429.39 194.889 429.558 194.836C429.898 194.73 430.265 194.762 430.581 194.926C430.897 195.09 431.135 195.371 431.244 195.71L435.805 210.069L435.352 213.074L433.245 210.9Z" fill="#BE8B87"/>
<path opacity="0.1" d="M429.116 195.262C429.456 195.155 429.825 195.186 430.142 195.35C430.459 195.514 430.698 195.797 430.807 196.136L435.368 210.495L435.025 212.748L435.357 213.095L435.81 210.09L431.223 195.731C431.114 195.392 430.876 195.111 430.56 194.947C430.244 194.784 429.877 194.751 429.537 194.857C429.252 194.95 429.005 195.135 428.837 195.383C428.926 195.335 429.02 195.295 429.116 195.262Z" fill="white"/>
<path d="M433.245 210.9L435.805 210.09L435.431 212.553L435.352 213.095L434.604 212.316L433.245 210.9Z" fill="#EFC8C4"/>
<path d="M434.604 212.316C434.648 212.26 434.704 212.213 434.767 212.179C434.804 212.156 434.847 212.144 434.891 212.144C434.935 212.144 434.978 212.156 435.015 212.179C435.051 212.223 435.081 212.271 435.104 212.322C435.139 212.38 435.186 212.429 435.243 212.467C435.299 212.504 435.364 212.528 435.431 212.537L435.352 213.064L434.604 212.316Z" fill="#727A9C"/>
<path d="M428.658 201.631C428.658 201.631 437.806 201.579 435.652 205.468C433.498 209.358 430.132 209.827 430.132 209.827L428.658 201.631Z" fill="#FFB0B1"/>
<path d="M371.761 27.0652H371.366C355.65 27.0652 341.751 35.3764 333.756 47.6405C325.761 35.3764 311.862 27.0652 296.146 27.0652H295.751C283.956 27.1776 272.683 31.9372 264.38 40.3098C256.077 48.6824 251.416 59.9914 251.41 71.7792C251.41 86.4171 257.825 107.187 270.333 124.278C294.165 156.844 333.756 185.335 333.756 185.335C333.756 185.335 373.346 156.849 397.173 124.278C409.687 107.187 416.097 86.4171 416.097 71.7792C416.09 59.9923 411.43 48.6841 403.128 40.3116C394.827 31.9392 383.554 27.1789 371.761 27.0652ZM366.11 126.783C364.32 126.777 362.574 126.229 361.101 125.213C359.628 124.196 358.497 122.759 357.856 121.088H348.461C347.842 121.084 347.24 120.888 346.738 120.525C346.237 120.163 345.861 119.653 345.664 119.067L342.778 110.377L333.645 142.269C333.467 142.883 333.095 143.422 332.584 143.807C332.073 144.191 331.451 144.4 330.812 144.401H330.627C329.96 144.368 329.324 144.108 328.825 143.664C328.327 143.219 327.996 142.617 327.889 141.958L318.477 85.3855L311.598 118.862C311.441 119.498 311.074 120.062 310.558 120.466C310.041 120.87 309.405 121.089 308.749 121.088H295.514C295.117 121.105 294.721 121.041 294.349 120.901C293.978 120.761 293.638 120.547 293.352 120.273C293.065 119.998 292.837 119.668 292.681 119.303C292.525 118.938 292.445 118.545 292.445 118.149C292.445 117.752 292.525 117.359 292.681 116.994C292.837 116.629 293.065 116.299 293.352 116.024C293.638 115.75 293.978 115.536 294.349 115.396C294.721 115.256 295.117 115.192 295.514 115.209H306.432L316.175 70.2001C316.335 69.5347 316.721 68.9454 317.268 68.5331C317.815 68.1207 318.487 67.9109 319.172 67.9395C319.856 67.9681 320.509 68.2334 321.019 68.6898C321.529 69.1463 321.865 69.7658 321.969 70.4422L331.581 128.152L339.765 99.6181C339.936 99.0172 340.296 98.4874 340.792 98.108C341.289 97.7285 341.895 97.5197 342.52 97.5127H342.578C343.197 97.5129 343.8 97.7084 344.301 98.0714C344.802 98.4343 345.176 98.9462 345.369 99.5339L350.588 115.225H357.741C358.249 113.681 359.175 112.307 360.415 111.256C361.655 110.204 363.162 109.515 364.769 109.266C366.377 109.016 368.021 109.215 369.523 109.841C371.024 110.466 372.323 111.494 373.276 112.811C374.23 114.128 374.801 115.682 374.926 117.303C375.051 118.924 374.726 120.548 373.986 121.995C373.247 123.443 372.121 124.658 370.734 125.507C369.347 126.355 367.752 126.804 366.125 126.804L366.11 126.783Z" fill="#2754A8"/>
</g>
<defs>
<linearGradient id="paint0_linear_1_36" x1="187.671" y1="407.858" x2="187.671" y2="83.9696" gradientUnits="userSpaceOnUse">
<stop stop-color="#808080" stop-opacity="0.25"/>
<stop offset="0.54" stop-color="#808080" stop-opacity="0.12"/>
<stop offset="1" stop-color="#808080" stop-opacity="0.1"/>
</linearGradient>
<linearGradient id="paint1_linear_1_36" x1="470.55" y1="403.763" x2="470.55" y2="107.95" gradientUnits="userSpaceOnUse">
<stop stop-color="#808080" stop-opacity="0.25"/>
<stop offset="0.54" stop-color="#808080" stop-opacity="0.12"/>
<stop offset="1" stop-color="#808080" stop-opacity="0.1"/>
</linearGradient>
<clipPath id="clip0_1_36">
<rect width="582" height="412" fill="white"/>
</clipPath>
</defs>
</svg>
