<svg width="20" height="20" viewBox="0 0 20 20" fill="none" xmlns="http://www.w3.org/2000/svg">
<path d="M18.8466 12.9614L14.3186 10.9315L14.3013 10.9238C14.0069 10.797 13.6855 10.7459 13.3664 10.7753C13.0472 10.8047 12.7405 10.9136 12.4743 11.0921C12.437 11.1171 12.401 11.1441 12.3666 11.1729L10.2214 12.9998C8.97135 12.3219 7.67997 11.0412 7.00111 9.80651L8.83384 7.62762C8.86331 7.59245 8.8906 7.55553 8.91558 7.51704C9.08941 7.2518 9.19495 6.94769 9.2228 6.63178C9.25064 6.31588 9.19994 5.99799 9.07519 5.70643C9.07223 5.70084 9.06966 5.69506 9.0675 5.68912L7.03861 1.15345C6.87207 0.774136 6.58784 0.458518 6.22798 0.253303C5.86812 0.0480889 5.45175 -0.0358177 5.0405 0.0140011C3.64467 0.197364 2.36331 0.882551 1.43575 1.94159C0.508177 3.00064 -0.00217466 4.36111 6.9656e-06 5.76893C6.9656e-06 13.6162 6.38379 20 14.2311 20C15.6389 20.0022 16.9994 19.4918 18.0584 18.5643C19.1174 17.6367 19.8026 16.3553 19.986 14.9595C20.0358 14.5482 19.9519 14.1319 19.7467 13.772C19.5415 13.4122 19.2259 13.1279 18.8466 12.9614ZM14.2311 17.6923C11.07 17.6884 8.03945 16.431 5.80422 14.1958C3.56899 11.9605 2.31156 8.93002 2.30775 5.76893C2.30554 4.97227 2.576 4.19885 3.07419 3.57717C3.57237 2.95549 4.26827 2.523 5.04627 2.35155L6.85592 6.3901L5.01357 8.58437C4.98379 8.61986 4.95618 8.65711 4.93088 8.69591C4.74929 8.97337 4.64253 9.29308 4.62096 9.62398C4.59939 9.95488 4.66376 10.2857 4.8078 10.5844C5.71359 12.4383 7.57997 14.2922 9.45309 15.1999C9.75377 15.3424 10.0863 15.4045 10.4181 15.3801C10.75 15.3557 11.0698 15.2455 11.3464 15.0605C11.3836 15.0354 11.4192 15.0081 11.4531 14.9787L13.6099 13.145L17.6484 14.9537C17.477 15.7317 17.0445 16.4276 16.4228 16.9258C15.8012 17.424 15.0277 17.6945 14.2311 17.6923Z" fill="#2754A8"/>
</svg>
